<?xml version="1.0" encoding="UTF-8"?>
<svg version="1.1" xmlns="http://www.w3.org/2000/svg" width="1280" height="720">
<path d="M0 0 C0.94681641 -0.020625 1.89363281 -0.04125 2.86914062 -0.0625 C11.02012423 -0.10737809 18.47239855 1.36628985 25.1875 6.25 C27.44164782 9.63122173 27.43294447 10.8564728 27.375 14.8125 C27.36855469 15.78316406 27.36210937 16.75382812 27.35546875 17.75390625 C27.1875 20.25 27.1875 20.25 26.1875 22.25 C26.05949406 23.83158453 25.95902809 25.41547028 25.875 27 C25.34045847 32.96617319 23.422613 36.014887 19.1875 40.25 C16.3671875 40.8828125 16.3671875 40.8828125 13.0625 41.375 C11.41894531 41.62636719 11.41894531 41.62636719 9.7421875 41.8828125 C8.89914062 42.00398438 8.05609375 42.12515625 7.1875 42.25 C7.79078125 42.38277344 8.3940625 42.51554687 9.015625 42.65234375 C9.81484375 42.82894531 10.6140625 43.00554687 11.4375 43.1875 C12.22640625 43.36152344 13.0153125 43.53554688 13.828125 43.71484375 C16.1875 44.25 16.1875 44.25 18.171875 44.94140625 C20.26824927 45.44819653 20.26824927 45.44819653 22.35644531 44.28369141 C25.87396271 42.99935468 28.75772822 43.00754282 32.5 43.01953125 C33.19134033 43.01998947 33.88268066 43.02044769 34.5949707 43.0209198 C36.05063605 43.02392882 37.50629855 43.03177448 38.96191406 43.04418945 C41.18045563 43.06244204 43.39857864 43.06469887 45.6171875 43.06445312 C57.41003327 43.10530344 57.41003327 43.10530344 62.1875 44.25 C62.1875 44.91 62.1875 45.57 62.1875 46.25 C63.32638672 45.83427734 63.32638672 45.83427734 64.48828125 45.41015625 C65.97908203 44.86681641 65.97908203 44.86681641 67.5 44.3125 C68.48613281 43.95285156 69.47226562 43.59320313 70.48828125 43.22265625 C74.91570248 41.62724686 78.34019613 41.05990237 83.0625 41 C84.27679688 40.97421875 85.49109375 40.9484375 86.7421875 40.921875 C90.47396181 41.27728208 92.27260788 41.93062347 95.1875 44.25 C97.56524312 47.52473603 97.39854874 50.54175775 97.3125 54.5 C97.29445313 55.57765625 97.27640625 56.6553125 97.2578125 57.765625 C97.23460937 58.58546875 97.21140625 59.4053125 97.1875 60.25 C97.5175 59.92 97.8475 59.59 98.1875 59.25 C100.82207959 57.20647168 103.50413785 55.2287922 106.1875 53.25 C107.095 52.569375 108.0025 51.88875 108.9375 51.1875 C125.14663634 41.52436103 144.80964962 37.50887284 163.25 41.8125 C170.75089628 43.74636744 177.84208888 46.75924106 184.1875 51.25 C184.5175 52.24 184.8475 53.23 185.1875 54.25 C185.8475 54.25 186.5075 54.25 187.1875 54.25 C187.1875 54.91 187.1875 55.57 187.1875 56.25 C187.8475 56.25 188.5075 56.25 189.1875 56.25 C190.625 58.26171875 190.625 58.26171875 192.1875 60.9375 C192.703125 61.80761719 193.21875 62.67773438 193.75 63.57421875 C196.18611421 68.10883352 197.47470298 72.14162137 198.1875 77.25 C198.75597656 76.32058594 199.32445312 75.39117187 199.91015625 74.43359375 C209.34376444 59.22220896 221.50670704 48.06047692 239.43798828 43.703125 C242.0573968 43.10567178 244.68146719 42.54393957 247.3125 42 C248.16013916 41.82436523 249.00777832 41.64873047 249.88110352 41.46777344 C266.2397375 38.30683899 281.75702948 42.39393727 295.7890625 51.1015625 C296.48128906 51.67003906 296.48128906 51.67003906 297.1875 52.25 C297.1875 52.91 297.1875 53.57 297.1875 54.25 C297.8475 54.25 298.5075 54.25 299.1875 54.25 C299.1875 54.91 299.1875 55.57 299.1875 56.25 C299.8475 56.25 300.5075 56.25 301.1875 56.25 C304.74929765 61.14747177 307.57905131 66.40109567 309.1875 72.25 C309.5175 72.91 309.8475 73.57 310.1875 74.25 C311.81873057 70.98753886 311.81020471 67.34020054 312.1875 63.75 C313.05236486 55.52027027 313.05236486 55.52027027 314.1875 53.25 C314.39168935 51.25348191 314.55272296 49.25240179 314.6875 47.25 C315.07638889 41.47222222 315.07638889 41.47222222 316.1875 39.25 C316.34608803 37.69055103 316.46428579 36.1269121 316.5625 34.5625 C316.96696878 29.77839273 317.65941828 25.08806639 318.5625 20.375 C318.79710937 19.14007813 319.03171875 17.90515625 319.2734375 16.6328125 C320.61053331 11.68441517 322.15519273 9.02949733 326.25 5.9375 C330.70406805 3.58225719 335.27011387 3.72559344 340.1875 4.25 C341.1775 4.58 342.1675 4.91 343.1875 5.25 C344.99804127 5.34398229 346.81202781 5.37991987 348.625 5.375 C349.57246094 5.37757813 350.51992188 5.38015625 351.49609375 5.3828125 C353.90602829 5.26388975 355.87343276 4.87320391 358.1875 4.25 C365.81540698 3.84136213 365.81540698 3.84136213 369.1875 6.25 C372.97430812 10.39211357 372.66444273 13.86884986 372.5546875 19.27734375 C372.0493754 24.74439058 370.90614672 29.99502327 369.68798828 35.34179688 C368.47897184 40.66966593 367.66181784 45.84892193 367.36328125 51.31640625 C367.1875 53.25 367.1875 53.25 366.1875 55.25 C365.98370266 57.05870138 365.82249005 58.87236592 365.6875 60.6875 C365.45443358 63.81308718 365.18275057 66.26424829 364.1875 69.25 C363.84567706 71.72893446 363.53513655 74.20211773 363.25 76.6875 C362.05271158 86.65402587 360.46950621 96.46997338 358.1875 106.25 C359.8375 105.59 361.4875 104.93 363.1875 104.25 C363.1875 103.59 363.1875 102.93 363.1875 102.25 C378.24305936 93.09218929 397.58084894 89.38409913 415.1875 90.25 C415.1875 88.93 415.1875 87.61 415.1875 86.25 C411.22887069 86.38842295 407.27068673 86.53699006 403.3125 86.6875 C402.18457031 86.72681641 401.05664062 86.76613281 399.89453125 86.80664062 C398.81816406 86.84853516 397.74179687 86.89042969 396.6328125 86.93359375 C395.63781738 86.97025146 394.64282227 87.00690918 393.61767578 87.04467773 C391.17970499 87.09959532 391.17970499 87.09959532 389.1875 88.25 C373.96744393 89.58402882 373.96744393 89.58402882 368.6640625 87.0390625 C365.42175799 83.67022904 364.87530149 80.46499156 364.75 75.875 C364.96969396 71.46780604 364.96969396 71.46780604 366.1875 70.25 C366.32045433 68.37682119 366.41853063 66.50112325 366.5 64.625 C367.00880834 57.93099021 368.59980828 54.38027224 372.8828125 49.19921875 C379.24796088 43.81581359 390.44922867 42.94416302 398.53125 42.46875 C401.38108466 42.23405773 404.07443447 41.69715855 406.875 41.125 C417.16656958 39.32933552 428.17141281 40.41525834 438.1875 43.25 C438.99445313 43.44335938 439.80140625 43.63671875 440.6328125 43.8359375 C450.23674658 46.33237297 458.87551441 51.6765103 464.1875 60.25 C465.84193752 64.51335821 467.09807002 68.81108034 468.1875 73.25 C468.29707031 72.35539062 468.40664063 71.46078125 468.51953125 70.5390625 C470.94105916 52.07245132 470.94105916 52.07245132 475.625 46.1875 C481.22570903 41.95281756 488.11894919 43.02900965 494.8671875 43.00976562 C496.91708527 43.0000963 498.9659637 42.9690636 501.015625 42.9375 C508.2709885 42.90893558 513.53863631 43.45129226 520.1875 46.25 C522.81893744 46.10177587 522.81893744 46.10177587 525.1875 45.125 C539.73252227 40.48511772 554.68288616 37.96385201 569.1875 44.25 C577.16094173 48.86030287 581.9556299 55.06823638 584.62890625 63.828125 C585.57464005 67.92850932 585.93359895 72.05625515 586.1875 76.25 C586.56261719 75.51394531 586.93773437 74.77789062 587.32421875 74.01953125 C590.11665724 68.69490673 592.6017307 64.24785016 597.1875 60.25 C598.0125 59.404375 598.8375 58.55875 599.6875 57.6875 C602.09938686 55.33591032 604.48546373 53.26081769 607.1875 51.25 C607.66960938 50.85941406 608.15171875 50.46882813 608.6484375 50.06640625 C622.24312592 40.19334068 642.3844537 38.97480637 658.35351562 41.42773438 C659.39185547 41.59595703 660.43019531 41.76417969 661.5 41.9375 C662.55767578 42.08638672 663.61535156 42.23527344 664.70507812 42.38867188 C670.85186721 43.37758747 674.37105352 44.21294164 678.1875 49.25 C678.5175 49.58 678.8475 49.91 679.1875 50.25 C679.58196773 55.65652829 679.09404677 60.92403774 678.1875 66.25 C678.8475 66.25 679.5075 66.25 680.1875 66.25 C680.1875 65.59 680.1875 64.93 680.1875 64.25 C680.8475 64.25 681.5075 64.25 682.1875 64.25 C682.5175 63.26 682.8475 62.27 683.1875 61.25 C683.8475 61.25 684.5075 61.25 685.1875 61.25 C685.455625 60.610625 685.72375 59.97125 686 59.3125 C687.1875 57.25 687.1875 57.25 690.1875 56.25 C690.1875 55.59 690.1875 54.93 690.1875 54.25 C709.92210525 42.99452172 729.77966569 36.95926666 752.16796875 43.0625 C758.79979739 45.07978628 764.96588677 47.56693881 770.1875 52.25 C770.53554687 52.95125 770.88359375 53.6525 771.2421875 54.375 C772.09275911 56.60994736 772.09275911 56.60994736 775.1875 57.25 C775.1875 57.91 775.1875 58.57 775.1875 59.25 C775.8475 59.25 776.5075 59.25 777.1875 59.25 C781.09420036 66.82482359 783.19777945 73.7856735 784.1875 82.25 C791.29070089 76.62427363 791.29070089 76.62427363 798.1875 70.75 C801.1875 68.25 801.1875 68.25 803.1875 68.25 C803.1875 67.59 803.1875 66.93 803.1875 66.25 C803.8475 66.25 804.5075 66.25 805.1875 66.25 C805.1875 65.59 805.1875 64.93 805.1875 64.25 C810.59926471 60.25 810.59926471 60.25 813.1875 60.25 C813.1875 59.59 813.1875 58.93 813.1875 58.25 C813.8475 58.25 814.5075 58.25 815.1875 58.25 C815.1875 57.59 815.1875 56.93 815.1875 56.25 C815.8475 56.25 816.5075 56.25 817.1875 56.25 C817.1875 55.59 817.1875 54.93 817.1875 54.25 C820.66926031 50.69689214 824.59421596 46.86909786 829.52734375 45.69140625 C832.62833044 45.6856316 835.25450083 46.27233361 838.1875 47.25 C838.7753125 46.5384375 838.7753125 46.5384375 839.375 45.8125 C842.83757065 42.8275253 847.32890995 43.1223573 851.72460938 43.10473633 C852.80923462 43.09835648 853.89385986 43.09197662 855.01135254 43.08540344 C856.75370178 43.08373421 856.75370178 43.08373421 858.53125 43.08203125 C859.73309937 43.07870285 860.93494873 43.07537445 862.17321777 43.07194519 C864.71166603 43.06688766 867.25012093 43.0645365 869.78857422 43.06469727 C873.67296256 43.06250819 877.55706804 43.04433262 881.44140625 43.02539062 C883.9088532 43.022457 886.37630149 43.020472 888.84375 43.01953125 C890.00531616 43.01234573 891.16688232 43.00516022 892.36364746 42.99775696 C893.99058533 43.0023719 893.99058533 43.0023719 895.65039062 43.00708008 C897.07671814 43.00494255 897.07671814 43.00494255 898.53186035 43.00276184 C902.39116792 43.36206063 905.21988321 44.34689099 908.0625 47 C909.6347882 50.1445764 909.17686706 51.92855345 908.1875 55.25 C905.79672172 58.26002904 902.80443331 59.56121528 899.375 61.1875 C894.45261559 63.56774465 894.45261559 63.56774465 889.8125 66.4375 C882.84267241 71.25 882.84267241 71.25 879.1875 71.25 C879.1875 71.91 879.1875 72.57 879.1875 73.25 C876.4605819 74.71256659 873.7305812 76.16928541 871 77.625 C870.23107422 78.0375 869.46214844 78.45 868.66992188 78.875 C864.9047599 80.87877719 861.20388925 82.78510452 857.1875 84.25 C857.1875 84.91 857.1875 85.57 857.1875 86.25 C853.85416667 87.91666667 850.52083333 89.58333333 847.1875 91.25 C846.16462891 91.83974609 846.16462891 91.83974609 845.12109375 92.44140625 C842.78315004 93.4190918 841.47146686 93.26227915 839 92.8125 C837.741875 92.626875 836.48375 92.44125 835.1875 92.25 C833.39045911 94.04704089 833.62810555 96.81374665 833.3125 99.25 C832.52277011 105.0215598 831.62917797 110.7618402 830.625 116.5 C830.49818848 117.23863281 830.37137695 117.97726562 830.24072266 118.73828125 C829.30876604 124.00746791 829.30876604 124.00746791 828.1875 126.25 C827.98331065 128.24651809 827.82227704 130.24759821 827.6875 132.25 C827.29861111 138.02777778 827.29861111 138.02777778 826.1875 140.25 C825.86483303 142.70813566 825.57944437 145.16087632 825.3125 147.625 C822.94883862 167.27127533 822.94883862 167.27127533 818.25 171.4375 C811.96524219 175.15705054 805.54646784 174.43614711 798.39794922 174.43530273 C796.32628721 174.43748547 794.25516142 174.4556516 792.18359375 174.47460938 C790.86746094 174.47654297 789.55132813 174.47847656 788.1953125 174.48046875 C786.99535645 174.48457764 785.79540039 174.48868652 784.55908203 174.49291992 C780.05212904 174.16819739 776.52504817 173.29031524 772.9375 170.5 C770.89218846 167.87031373 770.05921689 165.44629528 769.1875 162.25 C768.506875 163.24 768.506875 163.24 767.8125 164.25 C767.27625 164.91 766.74 165.57 766.1875 166.25 C765.5275 166.25 764.8675 166.25 764.1875 166.25 C764.1875 166.91 764.1875 167.57 764.1875 168.25 C754.41651864 171.66984348 744.83847571 174.39927903 734.46484375 175.0390625 C732.02432109 175.17806893 732.02432109 175.17806893 729.1875 176.25 C710.63301144 177.67439689 693.2703624 176.07332581 677.5 165.4375 C672.66921472 160.86783825 668.43098497 156.6046988 666.1875 150.25 C665.94515625 151.27480469 665.7028125 152.29960937 665.453125 153.35546875 C665.11525997 154.716314 664.77668031 156.07698197 664.4375 157.4375 C664.28023437 158.11103516 664.12296875 158.78457031 663.9609375 159.47851562 C662.4949936 165.25771753 660.55676215 168.74946731 655.4921875 171.95703125 C651.45558117 173.53636541 647.58773325 174.30530525 643.3125 174.9375 C642.47678467 175.0619751 641.64106934 175.1864502 640.7800293 175.31469727 C624.26315166 177.60753264 607.89697909 176.83052947 593.1875 168.25 C593.1875 167.59 593.1875 166.93 593.1875 166.25 C592.32125 165.87875 592.32125 165.87875 591.4375 165.5 C588.85810021 164.06700012 587.12628408 162.46575324 585.1875 160.25 C585.1875 159.59 585.1875 158.93 585.1875 158.25 C584.5275 158.25 583.8675 158.25 583.1875 158.25 C580.8775 153.96 578.5675 149.67 576.1875 145.25 C576.105 147.18875 576.0225 149.1275 575.9375 151.125 C575.33608822 158.68795907 574.10184844 166.05696506 568.1875 171.3125 C562.04114082 175.28202364 555.52714956 174.43614483 548.39794922 174.43530273 C546.32628721 174.43748547 544.25516142 174.4556516 542.18359375 174.47460938 C540.86746094 174.47654297 539.55132813 174.47847656 538.1953125 174.48046875 C536.99535645 174.48457764 535.79540039 174.48868652 534.55908203 174.49291992 C531.12318314 174.24536602 528.39106228 173.48239765 525.1875 172.25 C525.1875 171.59 525.1875 170.93 525.1875 170.25 C524.5275 170.25 523.8675 170.25 523.1875 170.25 C521.29033438 162.19084046 521.23125581 153.25966429 523.6796875 145.328125 C524.60334533 141.54823295 524.70114861 137.662604 524.94140625 133.7890625 C525.1875 131.25 525.1875 131.25 526.1875 129.25 C526.32229829 127.7941785 526.41941023 126.33482605 526.5 124.875 C527.01696915 118.3525726 528.37605437 112.05519031 529.81567383 105.68408203 C531.06897924 99.86676631 531.69754446 94.2060273 531.1875 88.25 C530.1279123 86.96677453 530.1279123 86.96677453 527.6875 87.125 C525.2470877 86.96677453 525.2470877 86.96677453 524.1875 88.25 C522.18791636 88.29080783 520.18704746 88.29254356 518.1875 88.25 C518.12691406 89.23742187 518.06632813 90.22484375 518.00390625 91.2421875 C517.92011719 92.52351563 517.83632813 93.80484375 517.75 95.125 C517.66878906 96.40117187 517.58757813 97.67734375 517.50390625 98.9921875 C517.1875 102.25 517.1875 102.25 516.1875 104.25 C516.02763018 105.93455421 515.91009405 107.62319344 515.8125 109.3125 C515.4019922 114.75503885 514.63254436 120.06772397 513.6875 125.4375 C513.55682129 126.19232666 513.42614258 126.94715332 513.29150391 127.72485352 C512.31562434 133.12187566 512.31562434 133.12187566 511.1875 134.25 C510.81125322 137.0424566 510.48044949 139.82367046 510.1875 142.625 C510.02382496 144.17479803 509.85726902 145.72429517 509.6875 147.2734375 C509.6153125 147.96356934 509.543125 148.65370117 509.46875 149.36474609 C509.1875 151.25 509.1875 151.25 508.1875 154.25 C508.08689325 156.18667988 508.00575976 158.1244104 507.9375 160.0625 C507.40009008 166.79640914 507.40009008 166.79640914 505.0625 169.875 C498.29431789 175.46610696 489.63979519 174.5909195 481.31713867 174.56567383 C479.12693991 174.56250281 476.93808032 174.58605945 474.74804688 174.61132812 C473.34114752 174.61360063 471.93424457 174.61430484 470.52734375 174.61328125 C469.26269287 174.61626221 467.99804199 174.61924316 466.69506836 174.62231445 C461.93085954 174.11661261 458.57826693 172.64076693 455.1875 169.25 C454.424375 169.889375 453.66125 170.52875 452.875 171.1875 C447.11485697 175.60807489 440.32881281 174.43400738 433.375 174.4375 C431.46750977 174.45586914 431.46750977 174.45586914 429.52148438 174.47460938 C427.67586914 174.47750977 427.67586914 174.47750977 425.79296875 174.48046875 C424.67043701 174.48457764 423.54790527 174.48868652 422.39135742 174.49291992 C418.21033882 174.17591059 414.71213199 173.15221668 411.1015625 171.015625 C409.16167459 170.01641258 409.16167459 170.01641258 406.9609375 170.859375 C406.16945313 171.23578125 405.37796875 171.6121875 404.5625 172 C392.64336125 177.15798987 380.2867654 178.1014593 368.015625 173.5078125 C360.10858194 169.99114418 355.11733236 166.03067312 351.1875 158.25 C350.98253906 158.86488281 350.77757812 159.47976563 350.56640625 160.11328125 C346.98268072 170.86445783 346.98268072 170.86445783 343.1875 173.25 C337.61888625 175.14835444 331.36313565 174.43594551 325.54345703 174.43530273 C323.32695209 174.43748577 321.11094802 174.45565091 318.89453125 174.47460938 C317.47396002 174.47754448 316.05338645 174.47952849 314.6328125 174.48046875 C313.34906738 174.48457764 312.06532227 174.48868652 310.74267578 174.49291992 C306.49675239 174.20280223 302.84933987 173.47925683 299.38671875 170.91796875 C297.88641685 168.83122962 297.47437948 167.08036029 297 164.5625 C296.84144531 163.75425781 296.68289063 162.94601562 296.51953125 162.11328125 C296.35517578 161.19095703 296.35517578 161.19095703 296.1875 160.25 C295.65125 161.1575 295.115 162.065 294.5625 163 C290.79584638 169.3743369 283.8974572 171.19678014 277.16699219 172.9465332 C271.74192626 174.27894742 266.38023889 174.83116186 260.796875 175.07421875 C258.07515907 175.14758649 258.07515907 175.14758649 255.1875 176.25 C238.25188481 177.55912901 220.69482472 177.0549505 206.1875 167.25 C205.1975 166.59 204.2075 165.93 203.1875 165.25 C203.1875 164.59 203.1875 163.93 203.1875 163.25 C202.630625 163.04375 202.07375 162.8375 201.5 162.625 C194.05578982 158.19871286 191.62600958 150.13510762 189.1875 142.25 C187.89765604 136.57202712 187.07136365 131.07793331 187.1875 125.25 C186.1975 125.745 186.1975 125.745 185.1875 126.25 C183.40018076 126.3408238 181.60944511 126.36753799 179.81982422 126.36352539 C178.69881317 126.36344986 177.57780212 126.36337433 176.42282104 126.36329651 C175.20821198 126.35813522 173.99360291 126.35297394 172.7421875 126.34765625 C171.50203888 126.3462413 170.26189026 126.34482635 168.98416138 126.34336853 C165.68631867 126.33871096 162.38852454 126.32972439 159.09069824 126.31866455 C155.72583613 126.30843731 152.36096692 126.30386809 148.99609375 126.29882812 C142.39321007 126.28778269 135.79035901 126.27103247 129.1875 126.25 C129.1875 126.91 129.1875 127.57 129.1875 128.25 C132.60964011 129.39071337 135.25951954 129.37944759 138.8671875 129.3828125 C139.51696564 129.38376923 140.16674377 129.38472595 140.83621216 129.38571167 C142.20965675 129.3863914 143.58310457 129.38455154 144.95654297 129.38037109 C147.04792598 129.37503717 149.13909255 129.38031406 151.23046875 129.38671875 C152.5677088 129.38605759 153.90494872 129.38477565 155.2421875 129.3828125 C157.05952393 129.38112061 157.05952393 129.38112061 158.91357422 129.37939453 C161.81040749 129.26490373 164.37066225 128.89064143 167.1875 128.25 C173.56368325 127.71694288 178.62078418 127.95541309 184.1875 131.25 C187.80185141 135.09753537 187.47958174 139.12939517 187.390625 144.140625 C187.1875 146.25 187.1875 146.25 186.1875 147.25 C186.05420436 148.93544926 185.95630187 150.62374396 185.875 152.3125 C185.40404868 157.64533116 184.60255426 162.00888542 181.1875 166.25 C165.06310242 177.41304448 135.79321079 178.79225437 116.98681641 175.91308594 C112.91315127 175.05515793 109.06085524 173.75774902 105.1875 172.25 C104.34058594 171.93804687 103.49367188 171.62609375 102.62109375 171.3046875 C91.03023012 166.63696238 85.04677641 158.94743411 79.1875 148.25 C77.4190911 143.78281289 76.92094366 140.01996939 76.88671875 135.2265625 C76.87845566 134.23787674 76.87845566 134.23787674 76.87002563 133.22921753 C76.85840463 131.11092311 76.86460504 128.99329414 76.875 126.875 C76.87673721 125.79569214 76.87673721 125.79569214 76.87850952 124.69458008 C76.92136781 111.29584302 77.74014529 98.70109648 83.1875 86.25 C80.97862243 86.36498267 78.77039213 86.49243505 76.5625 86.625 C74.71785156 86.72941406 74.71785156 86.72941406 72.8359375 86.8359375 C67.81699271 87.39549227 67.81699271 87.39549227 63.1875 89.25 C61.2134329 93.98776103 60.73136331 98.92489193 60.125 104 C59.28734399 110.95046802 59.28734399 110.95046802 58.1875 114.25 C57.88455618 117.08168318 57.67994942 119.91402835 57.46875 122.75390625 C57.1875 125.25 57.1875 125.25 56.1875 127.25 C55.88307694 129.59946461 55.62578483 131.95509524 55.390625 134.3125 C55.2353162 135.7644239 55.07903325 137.21624387 54.921875 138.66796875 C54.67816173 140.94668787 54.43989264 143.22532057 54.21875 145.50634766 C52.23175021 165.77995489 52.23175021 165.77995489 45.27441406 171.9453125 C39.48311848 175.56588849 32.20278324 174.50932425 25.59838867 174.54516602 C24.12140316 174.55668089 22.6444591 174.57712536 21.16772461 174.60668945 C19.02168822 174.64960539 16.87688228 174.66556582 14.73046875 174.67578125 C12.8127063 174.69765503 12.8127063 174.69765503 10.85620117 174.7199707 C6.26631723 174.13199395 3.96640943 172.89174452 0.1875 170.25 C-1.0764536 166.45813919 -0.99664402 162.8874828 -1 158.9375 C-1.01224609 158.19048828 -1.02449219 157.44347656 -1.03710938 156.67382812 C-1.04922283 152.07475377 -0.36433335 148.6181235 1.1875 144.25 C1.66418116 141.53378408 1.95941005 138.80415299 2.25 136.0625 C3.06756757 128.6097973 3.06756757 128.6097973 4.1875 125.25 C4.49044382 122.41831682 4.69505058 119.58597165 4.90625 116.74609375 C5.1875 114.25 5.1875 114.25 6.1875 112.25 C6.46534029 110.49913342 6.69773277 108.74093732 6.90625 106.98046875 C7.03386719 105.92666016 7.16148437 104.87285156 7.29296875 103.78710938 C7.42316406 102.68173828 7.55335938 101.57636719 7.6875 100.4375 C7.9462054 98.26411853 8.20656417 96.0909331 8.46875 93.91796875 C8.58283203 92.95141357 8.69691406 91.9848584 8.81445312 90.98901367 C9.16979974 88.37996021 9.64134785 85.82517771 10.1875 83.25 C8.7025 83.745 8.7025 83.745 7.1875 84.25 C5.45954648 84.31802967 3.72914635 84.33495645 2 84.3125 C0.64841797 84.29896484 0.64841797 84.29896484 -0.73046875 84.28515625 C-1.41753906 84.27355469 -2.10460937 84.26195312 -2.8125 84.25 C-3.82558533 87.28925598 -4.0165492 89.6254887 -4.1875 92.8125 C-4.59160668 98.58731477 -5.35925038 104.23341413 -6.3125 109.9375 C-6.44317871 110.72777588 -6.57385742 111.51805176 -6.70849609 112.33227539 C-7.67978083 117.98456166 -7.67978083 117.98456166 -8.8125 120.25 C-9.18103944 122.89599799 -9.51373628 125.53363788 -9.8125 128.1875 C-10.67996988 135.85240964 -10.67996988 135.85240964 -11.8125 139.25 C-12.11544382 142.08168318 -12.32005058 144.91402835 -12.53125 147.75390625 C-12.8125 150.25 -12.8125 150.25 -13.8125 152.25 C-13.96726442 154.16449317 -14.08729954 156.08187696 -14.1875 158 C-14.56098536 162.72515572 -14.98080126 166.30584818 -17.8125 170.25 C-24.6554911 175.338378 -32.30902504 174.43620261 -40.45654297 174.43530273 C-42.67304791 174.43748577 -44.88905198 174.45565091 -47.10546875 174.47460938 C-48.52603998 174.47754448 -49.94661355 174.47952849 -51.3671875 174.48046875 C-52.65093262 174.48457764 -53.93467773 174.48868652 -55.25732422 174.49291992 C-58.83600921 174.24839365 -61.539562 173.70748491 -64.8125 172.25 C-67.77053981 167.31993366 -68.49644741 162.93816264 -67.8125 157.25 C-67.3484375 155.6721875 -67.3484375 155.6721875 -66.875 154.0625 C-65.57037497 149.38119843 -65.33141564 144.88138143 -65.05859375 140.04296875 C-64.8125 137.25 -64.8125 137.25 -63.8125 135.25 C-63.60870266 133.44129862 -63.44749005 131.62763408 -63.3125 129.8125 C-63.07943358 126.68691282 -62.80775057 124.23575171 -61.8125 121.25 C-61.35450042 118.04042482 -60.95005483 114.82984986 -60.5625 111.61132812 C-59.91472805 106.45445609 -59.91472805 106.45445609 -58.8125 104.25 C-58.44396056 101.60400201 -58.11126372 98.96636212 -57.8125 96.3125 C-56.94503012 88.64759036 -56.94503012 88.64759036 -55.8125 85.25 C-55.50955618 82.41831682 -55.30494942 79.58597165 -55.09375 76.74609375 C-54.8125 74.25 -54.8125 74.25 -53.8125 72.25 C-53.48556729 70.14355082 -53.2043688 68.02993182 -52.9453125 65.9140625 C-52.78160156 64.62113281 -52.61789062 63.32820313 -52.44921875 61.99609375 C-52.1942525 59.95199293 -51.94147273 57.90767792 -51.69287109 55.86279297 C-50.20630395 43.71107474 -48.47110373 32.3676214 -42.625 21.5 C-42.07295898 20.43652344 -42.07295898 20.43652344 -41.50976562 19.3515625 C-40.62195716 17.64512544 -39.71893963 15.94661384 -38.8125 14.25 C-38.1525 14.25 -37.4925 14.25 -36.8125 14.25 C-36.56628906 13.65316406 -36.32007813 13.05632812 -36.06640625 12.44140625 C-32.71039967 6.57623587 -25.24284989 3.71705787 -19.05078125 1.79296875 C-12.67737924 0.24689043 -6.52862841 0.03512376 0 0 Z M137.1875 86.25 C137.1875 86.91 137.1875 87.57 137.1875 88.25 C136.5275 88.25 135.8675 88.25 135.1875 88.25 C135.1875 88.91 135.1875 89.57 135.1875 90.25 C139.95057437 91.20261487 144.3541528 91.33333357 149.1875 91.25 C148.5275 89.27 147.8675 87.29 147.1875 85.25 C143.10974809 84.3232382 140.76568963 83.91041447 137.1875 86.25 Z M249.1875 86.25 C249.1875 86.91 249.1875 87.57 249.1875 88.25 C248.5275 88.25 247.8675 88.25 247.1875 88.25 C247.1875 88.91 247.1875 89.57 247.1875 90.25 C251.1475 90.58 255.1075 90.91 259.1875 91.25 C259.5175 89.6 259.8475 87.95 260.1875 86.25 C255.86321479 83.86418747 253.51178521 83.86418747 249.1875 86.25 Z M722.1875 86.25 C721.8575 87.57 721.5275 88.89 721.1875 90.25 C728.1175 90.745 728.1175 90.745 735.1875 91.25 C734.5275 89.27 733.8675 87.29 733.1875 85.25 C728.86816349 84.24550314 726.07529613 83.91732232 722.1875 86.25 Z M632.1875 94.25 C630.25856949 98.71858824 629.65329436 103.25810872 629.125 108.0625 C629.04411133 108.76592529 628.96322266 109.46935059 628.87988281 110.1940918 C628.64818312 112.21262414 628.41780709 114.23130829 628.1875 116.25 C628.04957031 117.219375 627.91164063 118.18875 627.76953125 119.1875 C627.02159739 123.98373297 627.02159739 123.98373297 629.1875 128.25 C636.82634971 129.60527979 644.58310552 129.318109 652.31787109 129.21362305 C653.16043457 129.20500244 654.00299805 129.19638184 654.87109375 129.1875 C655.62962646 129.17589844 656.38815918 129.16429687 657.16967773 129.15234375 C659.1875 129.25 659.1875 129.25 662.1875 130.25 C662.24284912 129.65461426 662.29819824 129.05922852 662.35522461 128.44580078 C662.60768865 125.75512785 662.86626816 123.06507714 663.125 120.375 C663.21201172 119.43785156 663.29902344 118.50070312 663.38867188 117.53515625 C663.47568359 116.63925781 663.56269531 115.74335938 663.65234375 114.8203125 C663.730896 113.99289551 663.80944824 113.16547852 663.89038086 112.31298828 C664.1875 110.25 664.1875 110.25 665.1875 108.25 C665.36798506 106.33628539 665.50806755 104.41864673 665.625 102.5 C665.95193711 98.1021686 666.55752664 94.37926584 668.1875 90.25 C668.1875 89.59 668.1875 88.93 668.1875 88.25 C663.8643192 88.10120108 659.54250997 87.99258138 655.2175293 87.92041016 C653.74786404 87.89031462 652.27837729 87.84942594 650.80932617 87.79736328 C648.69144659 87.7242093 646.57594755 87.69047786 644.45703125 87.6640625 C643.18448486 87.6326416 641.91193848 87.6012207 640.60083008 87.56884766 C635.82090359 88.52271325 634.87974223 90.26425579 632.1875 94.25 Z M299.1875 125.25 C297.30905092 125.36982257 295.42649169 125.42729161 293.54443359 125.45532227 C291.77282364 125.4852401 291.77282364 125.4852401 289.96542358 125.51576233 C288.68519318 125.53247482 287.40496277 125.54918732 286.0859375 125.56640625 C284.77920074 125.58718735 283.47246399 125.60796844 282.12612915 125.62937927 C278.650811 125.68459294 275.17543347 125.73400525 271.70001221 125.78222656 C268.154121 125.83244677 264.6083161 125.88813012 261.0625 125.94335938 C254.1042415 126.05093228 247.14590504 126.15237917 240.1875 126.25 C240.5175 127.24 240.8475 128.23 241.1875 129.25 C244.71141916 130.42463972 247.89290827 130.39350746 251.55859375 130.3828125 C252.2773317 130.38376923 252.99606964 130.38472595 253.73658752 130.38571167 C255.25546354 130.38639158 256.77434248 130.38455044 258.29321289 130.38037109 C260.61285977 130.37502796 262.93231233 130.38031838 265.25195312 130.38671875 C266.72916709 130.38605778 268.20638094 130.38477623 269.68359375 130.3828125 C270.72126137 130.38584885 270.72126137 130.38584885 271.77989197 130.38894653 C275.08547488 130.37293342 278.01273977 130.16032866 281.1875 129.25 C287.16172528 128.85824752 290.90225106 129.39596557 296.1875 132.25 C298.48383824 135.69450737 298.72766485 138.18812283 299.1875 142.25 C299.5175 142.25 299.8475 142.25 300.1875 142.25 C302.010821 136.09629161 302.4236959 130.65353322 302.1875 124.25 C300.9638932 124.1754644 300.9638932 124.1754644 299.1875 125.25 Z M400.1875 128.25 C400.02068891 131.33347826 400.02068891 131.33347826 400.1875 134.25 C402.87194856 135.28248021 404.42863146 135.21141897 407.3125 134.75 C410.56870624 133.45643601 410.56870624 133.45643601 411.5625 129.625 C411.871875 127.954375 411.871875 127.954375 412.1875 126.25 C410.56286158 126.19604522 408.93771459 126.15722805 407.3125 126.125 C406.40757812 126.10179687 405.50265625 126.07859375 404.5703125 126.0546875 C401.99943006 126.00675164 401.99943006 126.00675164 400.1875 128.25 Z M767.4309082 125.34179688 C766.24991043 125.36181763 765.06891266 125.38183838 763.85212708 125.40246582 C761.93952339 125.43527649 761.93952339 125.43527649 759.98828125 125.46875 C758.68295944 125.49094604 757.37763763 125.51314209 756.03276062 125.53601074 C752.56561911 125.59496982 749.09848288 125.65423423 745.63134766 125.71356201 C742.09212553 125.77406933 738.5528985 125.83428819 735.01367188 125.89453125 C728.07160975 126.01273835 721.12955317 126.13126798 714.1875 126.25 C714.5175 127.24 714.8475 128.23 715.1875 129.25 C718.15420158 130.73335079 721.17406005 130.39227209 724.42578125 130.3828125 C725.50245308 130.38424759 725.50245308 130.38424759 726.60087585 130.38571167 C728.12153206 130.38639269 729.64219117 130.38454386 731.1628418 130.38037109 C733.48037336 130.3750451 735.79770904 130.38030653 738.11523438 130.38671875 C739.59375043 130.3860575 741.07226635 130.38477535 742.55078125 130.3828125 C743.58541252 130.38584885 743.58541252 130.38584885 744.64094543 130.38894653 C748.29420744 130.37133449 751.62789411 130.0473333 755.1875 129.25 C760.96937525 128.87697579 765.12123713 129.07116839 770.1875 132.25 C771.66388354 134.90434914 772.36230428 137.28900359 773.1875 140.25 C775.95792109 137.47957891 775.58546106 135.48466195 775.8125 131.625 C775.88726563 130.43648437 775.96203125 129.24796875 776.0390625 128.0234375 C776.08804688 127.10820312 776.13703125 126.19296875 776.1875 125.25 C773.26718374 125.25 770.35078814 125.29199082 767.4309082 125.34179688 Z M298.1875 144.25 C297.04397084 146.53705831 297.08415561 147.84264762 297.125 150.375 C297.145625 151.65375 297.16625 152.9325 297.1875 154.25 C299.28100689 150.8480513 299.36692163 148.19727588 299.1875 144.25 C298.8575 144.25 298.5275 144.25 298.1875 144.25 Z M771.1875 150.25 C770.8575 152.56 770.5275 154.87 770.1875 157.25 C772.49421915 154.53450846 772.49421915 154.53450846 771.8125 152.0625 C771.60625 151.464375 771.4 150.86625 771.1875 150.25 Z " fill="#F9F9F9" transform="translate(363.8125,272.75)"/>
<path d="M0 0 C0.67804688 -0.00386719 1.35609375 -0.00773438 2.0546875 -0.01171875 C6.09669517 -0.00403432 9.94434506 0.34897768 13.95507812 0.89794922 C18.99347906 1.39642931 24.0671997 1.26734103 29.125 1.25 C30.24519531 1.25386719 31.36539062 1.25773438 32.51953125 1.26171875 C33.62425781 1.26042969 34.72898437 1.25914062 35.8671875 1.2578125 C36.85315918 1.25668457 37.83913086 1.25555664 38.85498047 1.25439453 C41.5601639 1.15129175 44.16113333 0.9286606 46.84640503 0.62698364 C51.94451389 0.10868778 56.98122313 -0.02941574 62.10253906 -0.03613281 C63.03070435 -0.04109772 63.95886963 -0.04606262 64.91516113 -0.05117798 C67.94865691 -0.06564172 70.9821006 -0.07257118 74.015625 -0.078125 C75.57932453 -0.08236607 75.57932453 -0.08236607 77.17461395 -0.08669281 C82.67988839 -0.10161296 88.18513706 -0.11089056 93.69042969 -0.11523438 C99.36865581 -0.12074128 105.04664484 -0.14483628 110.7247963 -0.17320633 C115.103421 -0.19182698 119.48198815 -0.19703777 123.86064911 -0.19857025 C125.95460064 -0.20159323 128.04855124 -0.20960976 130.14246368 -0.22275543 C133.06684104 -0.23982083 135.99063204 -0.23793561 138.91503906 -0.23144531 C140.20562225 -0.24526749 140.20562225 -0.24526749 141.52227783 -0.2593689 C146.51263922 -0.22469619 149.91357053 0.37910506 154.25 3.125 C156.45355547 5.80758926 156.24798738 7.16323987 156.0625 10.6875 C155.23543683 14.1866134 154.93338157 14.98663806 152.25 17.125 C150.3840332 17.78515625 150.3840332 17.78515625 148.30078125 18.1875 C147.53443359 18.34476563 146.76808594 18.50203125 145.97851562 18.6640625 C145.18123047 18.81617188 144.38394531 18.96828125 143.5625 19.125 C138.26991818 20.15983787 133.37126989 21.38656119 128.35571289 23.37109375 C124.27763126 24.83116518 120.03404409 25.68146815 115.8125 26.625 C109.97523678 27.93531977 104.31036718 29.37988985 98.65551758 31.33496094 C93.77107406 32.93914842 88.78135896 34.18675972 83.8125 35.5 C81.50637276 36.11536979 79.20038378 36.73125791 76.89453125 37.34765625 C75.76869629 37.64816895 74.64286133 37.94868164 73.48291016 38.25830078 C68.98300418 39.46466434 64.48969595 40.69372965 60 41.9375 C58.93954468 42.22923096 58.93954468 42.22923096 57.85766602 42.52685547 C54.93160907 43.33978809 52.04038662 44.19610935 49.1640625 45.171875 C46.09047557 46.17717689 43.03617741 46.88510484 39.875 47.5625 C36.13044237 48.39792226 32.60287148 49.27184083 29.0625 50.75 C22.72586919 53.29536967 15.88129154 53.69556905 9.25 52.125 C9.25 51.465 9.25 50.805 9.25 50.125 C8.26 50.125 7.27 50.125 6.25 50.125 C7.4875 51.0840625 7.4875 51.0840625 8.75 52.0625 C11.7140653 55.69348 11.8123316 57.22432984 11.55078125 61.73046875 C10.9788063 66.28398359 9.93263916 70.66455237 8.70703125 75.08203125 C7.38013396 79.9805769 6.84169662 84.74054751 6.49609375 89.8046875 C6.25 92.125 6.25 92.125 5.25 94.125 C5.04581065 96.12151809 4.88477704 98.12259821 4.75 100.125 C4.36111111 105.90277778 4.36111111 105.90277778 3.25 108.125 C2.90507046 110.30762139 2.59850402 112.49637832 2.3125 114.6875 C1.36270329 121.57528506 0.08189364 128.18890478 -1.8125 134.875 C-3.0458558 139.63498252 -3.22575984 144.47408127 -3.50390625 149.3671875 C-3.75 152.125 -3.75 152.125 -4.75 154.125 C-5.01766015 156.28955596 -5.26431838 158.45672912 -5.5 160.625 C-6.3919324 167.28018792 -8.29532296 172.40236705 -11.75 178.125 C-12.41 178.125 -13.07 178.125 -13.75 178.125 C-13.75 178.785 -13.75 179.445 -13.75 180.125 C-14.41 180.125 -15.07 180.125 -15.75 180.125 C-15.75 180.785 -15.75 181.445 -15.75 182.125 C-16.41 182.125 -17.07 182.125 -17.75 182.125 C-18.41 183.445 -19.07 184.765 -19.75 186.125 C-20.41 186.125 -21.07 186.125 -21.75 186.125 C-21.75 186.785 -21.75 187.445 -21.75 188.125 C-23.32421875 189.67578125 -23.32421875 189.67578125 -25.4375 191.4375 C-29.67220121 194.98635506 -33.50267921 198.84401838 -37.35546875 202.80078125 C-38.20753906 203.67089844 -39.05960938 204.54101562 -39.9375 205.4375 C-40.79730469 206.32050781 -41.65710938 207.20351563 -42.54296875 208.11328125 C-44.75 210.125 -44.75 210.125 -46.75 210.125 C-46.75 210.785 -46.75 211.445 -46.75 212.125 C-47.41 212.125 -48.07 212.125 -48.75 212.125 C-49.08 213.115 -49.41 214.105 -49.75 215.125 C-50.41 215.125 -51.07 215.125 -51.75 215.125 C-51.75 215.785 -51.75 216.445 -51.75 217.125 C-52.41 217.125 -53.07 217.125 -53.75 217.125 C-54.08 218.115 -54.41 219.105 -54.75 220.125 C-55.41 220.125 -56.07 220.125 -56.75 220.125 C-56.75 220.785 -56.75 221.445 -56.75 222.125 C-57.41 222.125 -58.07 222.125 -58.75 222.125 C-59.08 223.115 -59.41 224.105 -59.75 225.125 C-60.41 225.125 -61.07 225.125 -61.75 225.125 C-61.75 225.785 -61.75 226.445 -61.75 227.125 C-62.41 227.125 -63.07 227.125 -63.75 227.125 C-64.08 228.115 -64.41 229.105 -64.75 230.125 C-68.59804479 233.23580256 -72.75994968 235.65718278 -77.75 236.125 C-77.976875 237.341875 -78.20375 238.55875 -78.4375 239.8125 C-79.50962573 244.10100291 -81.2255157 246.35576233 -84.75 249.125 C-86.08106622 249.46727417 -87.41400079 249.80251743 -88.75 250.125 C-89.44937532 251.44147119 -90.11729133 252.77522151 -90.75 254.125 C-91.74 254.455 -92.73 254.785 -93.75 255.125 C-94.08 255.785 -94.41 256.445 -94.75 257.125 C-95.08 257.785 -95.41 258.445 -95.75 259.125 C-96.74 259.455 -97.73 259.785 -98.75 260.125 C-99.08 260.785 -99.41 261.445 -99.75 262.125 C-100.08 262.785 -100.41 263.445 -100.75 264.125 C-101.74 264.455 -102.73 264.785 -103.75 265.125 C-104.08 265.785 -104.41 266.445 -104.75 267.125 C-105.08 267.785 -105.41 268.445 -105.75 269.125 C-106.74 269.455 -107.73 269.785 -108.75 270.125 C-109.08 270.785 -109.41 271.445 -109.75 272.125 C-110.08 272.785 -110.41 273.445 -110.75 274.125 C-111.74 274.455 -112.73 274.785 -113.75 275.125 C-114.08 275.785 -114.41 276.445 -114.75 277.125 C-115.08 277.785 -115.41 278.445 -115.75 279.125 C-116.74 279.455 -117.73 279.785 -118.75 280.125 C-119.08 280.785 -119.41 281.445 -119.75 282.125 C-120.08 282.785 -120.41 283.445 -120.75 284.125 C-121.74 284.455 -122.73 284.785 -123.75 285.125 C-124.08 285.785 -124.41 286.445 -124.75 287.125 C-125.08 287.785 -125.41 288.445 -125.75 289.125 C-126.74 289.455 -127.73 289.785 -128.75 290.125 C-129.08 290.785 -129.41 291.445 -129.75 292.125 C-130.08 292.785 -130.41 293.445 -130.75 294.125 C-131.74 294.455 -132.73 294.785 -133.75 295.125 C-133.75 295.785 -133.75 296.445 -133.75 297.125 C-135.125 298.75 -135.125 298.75 -136.75 300.125 C-137.41 300.125 -138.07 300.125 -138.75 300.125 C-139.018125 300.764375 -139.28625 301.40375 -139.5625 302.0625 C-140.75 304.125 -140.75 304.125 -143.75 305.125 C-144.08 306.115 -144.41 307.105 -144.75 308.125 C-145.41 308.125 -146.07 308.125 -146.75 308.125 C-146.75 308.785 -146.75 309.445 -146.75 310.125 C-147.41 310.125 -148.07 310.125 -148.75 310.125 C-148.75 310.785 -148.75 311.445 -148.75 312.125 C-153.90948276 315.31896552 -153.90948276 315.31896552 -158 314.375 C-162.70555556 312.23611111 -162.70555556 312.23611111 -163.375 310.5625 C-164.64446117 302.31100239 -162.72965259 295.52624554 -160.4375 287.625 C-158.35154511 280.20354499 -156.33179701 272.85817009 -155.0625 265.25 C-154.2984134 260.76797983 -153.35255921 256.65162595 -151.8125 252.375 C-149.63354708 246.27724581 -148.46231758 240.10257495 -147.25024414 233.75976562 C-145.84729822 226.45814764 -144.12631311 219.29060424 -142.25439453 212.09570312 C-141.72337084 210.0209581 -141.21647703 207.94141267 -140.71484375 205.859375 C-136.15189576 186.96807895 -136.15189576 186.96807895 -130.75 182.125 C-130.75 181.465 -130.75 180.805 -130.75 180.125 C-131.348125 179.8775 -131.94625 179.63 -132.5625 179.375 C-135.16320743 177.88888147 -136.29416577 176.74550161 -137.75 174.125 C-137.9375 170.875 -137.9375 170.875 -137.75 168.125 C-138.78125 168.063125 -139.8125 168.00125 -140.875 167.9375 C-145.67311345 166.93144395 -147.32950009 165.54549991 -150.75 162.125 C-150.75 161.465 -150.75 160.805 -150.75 160.125 C-151.41 160.125 -152.07 160.125 -152.75 160.125 C-154.375 158.75 -154.375 158.75 -155.75 157.125 C-155.75 156.465 -155.75 155.805 -155.75 155.125 C-156.41 155.125 -157.07 155.125 -157.75 155.125 C-159.04041914 153.67735738 -160.25767134 152.16410851 -161.4375 150.625 C-166.53249953 144.09933938 -171.8140593 137.90473174 -177.75 132.125 C-178.48347656 131.39023437 -179.21695313 130.65546875 -179.97265625 129.8984375 C-181.99885282 127.87509071 -184.03457178 125.86484535 -186.08203125 123.86328125 C-187.24224929 122.72141694 -188.40240471 121.57948901 -189.5625 120.4375 C-190.15998047 119.85677734 -190.75746094 119.27605469 -191.37304688 118.67773438 C-192.87014673 117.19774424 -194.31488731 115.66517218 -195.75 114.125 C-195.75 113.465 -195.75 112.805 -195.75 112.125 C-196.41 112.125 -197.07 112.125 -197.75 112.125 C-197.75 111.465 -197.75 110.805 -197.75 110.125 C-198.61625 109.75375 -198.61625 109.75375 -199.5 109.375 C-202.07939979 107.94200012 -203.81121592 106.34075324 -205.75 104.125 C-205.75 103.465 -205.75 102.805 -205.75 102.125 C-206.41 102.125 -207.07 102.125 -207.75 102.125 C-209.1875 100.515625 -209.1875 100.515625 -210.75 98.375 C-211.5234375 97.33085937 -211.5234375 97.33085937 -212.3125 96.265625 C-213.75 94.125 -213.75 94.125 -214.828125 91.9140625 C-215.59934471 89.98513809 -215.59934471 89.98513809 -217.5 89.25 C-220.83711916 87.58144042 -223.39802342 85.01009128 -225.75 82.125 C-225.75 81.465 -225.75 80.805 -225.75 80.125 C-226.41 80.125 -227.07 80.125 -227.75 80.125 C-227.75 79.465 -227.75 78.805 -227.75 78.125 C-228.36875 77.8775 -228.9875 77.63 -229.625 77.375 C-232.10068687 75.91871361 -232.70125002 74.74687494 -233.75 72.125 C-234.41 72.125 -235.07 72.125 -235.75 72.125 C-235.75 71.465 -235.75 70.805 -235.75 70.125 C-236.41 70.125 -237.07 70.125 -237.75 70.125 C-237.75 69.465 -237.75 68.805 -237.75 68.125 C-238.41 68.125 -239.07 68.125 -239.75 68.125 C-241.3359375 66.55078125 -241.3359375 66.55078125 -243.125 64.4375 C-243.74890625 63.70660156 -244.3728125 62.97570312 -245.015625 62.22265625 C-246.33175756 60.63084728 -247.61208916 59.0093552 -248.875 57.375 C-250.69116392 54.98289852 -250.69116392 54.98289852 -253.4375 53.3125 C-256.30337298 50.60153908 -256.57427685 48.92466667 -256.82421875 45.08984375 C-256.72151702 42.37095057 -256.12743976 40.4666476 -254.75 38.125 C-251.72455666 36.10803778 -251.13932618 35.86688904 -247.75 35.9375 C-247.069375 35.94394531 -246.38875 35.95039063 -245.6875 35.95703125 C-243.75 36.125 -243.75 36.125 -240.75 37.125 C-237.89886565 37.26725424 -235.06768671 37.35840417 -232.21484375 37.40625 C-231.38038223 37.42465942 -230.54592072 37.44306885 -229.68617249 37.46203613 C-226.11472369 37.54071078 -222.54308787 37.60854195 -218.97143555 37.67724609 C-216.36497547 37.72892488 -213.75867937 37.78618448 -211.15234375 37.84375 C-209.93513893 37.86411316 -209.93513893 37.86411316 -208.69334412 37.8848877 C-202.97565348 38.01217326 -202.97565348 38.01217326 -200.75 39.125 C-198.7906396 39.21010205 -196.82837206 39.23217656 -194.8671875 39.22265625 C-193.11728516 39.21782227 -193.11728516 39.21782227 -191.33203125 39.21289062 C-189.49705078 39.20032227 -189.49705078 39.20032227 -187.625 39.1875 C-185.77841797 39.18073242 -185.77841797 39.18073242 -183.89453125 39.17382812 C-180.84630608 39.1620133 -177.79817686 39.14554028 -174.75 39.125 C-175.04769287 38.55990723 -175.34538574 37.99481445 -175.65209961 37.41259766 C-176.99744782 34.85851149 -178.34247774 32.30425783 -179.6875 29.75 C-180.15607422 28.86054688 -180.62464844 27.97109375 -181.10742188 27.0546875 C-181.7793457 25.77851563 -181.7793457 25.77851563 -182.46484375 24.4765625 C-183.08540649 23.29827881 -183.08540649 23.29827881 -183.71850586 22.09619141 C-186.1763689 17.3992006 -186.454024 13.4093213 -185.75 8.125 C-183.8125 4.9375 -183.8125 4.9375 -180.75 3.125 C-174.96008822 2.64605509 -170.84066623 4.56681167 -165.75 7.125 C-163.74353685 7.79469992 -161.72138849 8.418889 -159.6875 9 C-152.19438386 11.23253803 -144.97818047 14.04378201 -137.71875 16.93359375 C-133.89437597 18.41805472 -130.02635078 19.66415804 -126.10131836 20.85986328 C-119.38445872 22.90605893 -112.94607944 25.19250476 -106.5 28.00390625 C-103.8166785 29.09781714 -101.16674406 29.91893951 -98.375 30.6875 C-94.16145553 31.88167685 -91.17966998 33.39885206 -87.75 36.125 C-86.2716774 39.08164519 -86.68967217 41.86729737 -86.75 45.125 C-86.15832031 45.18558594 -85.56664062 45.24617188 -84.95703125 45.30859375 C-78.12716082 46.03280513 -78.12716082 46.03280513 -74.9375 46.8125 C-72.7387984 47.25995258 -72.7387984 47.25995258 -70.5625 46.625 C-68.25171144 44.71262326 -68.1631461 42.96966836 -67.50390625 40.13671875 C-65.83483282 35.68297357 -61.97061296 31.16101088 -57.6484375 29.14453125 C-55.20929808 27.83462304 -54.96291715 26.58586439 -53.75 24.125 C-52.03930131 22.35645159 -50.26038224 20.65268079 -48.4375 19 C-47.49261719 18.13117188 -46.54773438 17.26234375 -45.57421875 16.3671875 C-42.96880798 14.29871477 -40.88875501 13.14266556 -37.75 12.125 C-37.75 11.465 -37.75 10.805 -37.75 10.125 C-37.09 10.125 -36.43 10.125 -35.75 10.125 C-35.75 9.465 -35.75 8.805 -35.75 8.125 C-35.09 8.125 -34.43 8.125 -33.75 8.125 C-33.75 7.465 -33.75 6.805 -33.75 6.125 C-29.4401672 2.62326085 -26.06703377 2.70301319 -20.75 3.125 C-18.25 4.125 -18.25 4.125 -16.75 5.125 C-15.63625 4.1659375 -15.63625 4.1659375 -14.5 3.1875 C-9.88615174 -0.2728862 -5.62340934 -0.0313573 0 0 Z " fill="#FBFEFB" transform="translate(264.75,200.875)"/>
<path d="M0 0 C1.55847656 0.05607422 1.55847656 0.05607422 3.1484375 0.11328125 C4.38207031 0.149375 5.61570312 0.18546875 6.88671875 0.22265625 C7.60166504 0.25423828 8.31661133 0.28582031 9.05322266 0.31835938 C11.93207475 0.4435516 14.811334 0.53601483 17.69140625 0.62890625 C35.3594848 1.23972218 35.3594848 1.23972218 40.90625 1.92578125 C47.10846664 2.67711866 53.34643407 2.78593691 59.5859375 2.98828125 C61.45668945 3.05305664 61.45668945 3.05305664 63.36523438 3.11914062 C66.41787841 3.22440421 69.47059273 3.32654066 72.5234375 3.42578125 C72.65761143 8.40299527 72.19816599 12.86289133 71.2109375 17.73828125 C70.93190654 19.1507094 70.65462873 20.56348477 70.37890625 21.9765625 C70.23630371 22.70568848 70.09370117 23.43481445 69.94677734 24.18603516 C69.24065779 27.92187185 68.63362231 31.67328622 68.0234375 35.42578125 C67.10560842 41.04890631 66.11139119 46.64551931 65.0234375 52.23828125 C63.86201963 58.23669815 62.96717992 64.24675613 62.1484375 70.30078125 C60.86564308 79.759405 59.12356156 89.10079336 57.23681641 98.45654297 C57.02976074 99.49311035 56.82270508 100.52967773 56.609375 101.59765625 C56.4242334 102.50612305 56.2390918 103.41458984 56.04833984 104.35058594 C55.45442445 107.2342754 55.45442445 107.2342754 55.57331848 109.42330933 C55.53025768 116.23048411 52.43220933 119.43500693 47.75437927 124.12686157 C46.79115535 125.05251727 45.82744351 125.97766546 44.86328125 126.90234375 C43.87328601 127.87992553 42.88499677 128.85923768 41.89833069 129.84017944 C39.30330601 132.41043801 36.68477827 134.95539588 34.06079102 137.49603271 C31.41614161 140.06612101 28.79666013 142.6615932 26.17382812 145.25390625 C10.38239452 160.81915038 10.38239452 160.81915038 3.16282654 166.99449158 C0.05501481 169.70780655 -2.74189556 172.72706087 -5.59375 175.703125 C-7.4765625 177.42578125 -7.4765625 177.42578125 -9.4765625 177.42578125 C-10.9284668 175.96582031 -10.9284668 175.96582031 -12.61328125 173.94140625 C-15.13008154 170.98046473 -17.68862382 168.09721735 -20.37109375 165.28515625 C-21.33885742 164.26808594 -21.33885742 164.26808594 -22.32617188 163.23046875 C-23.65189156 161.84275024 -24.98008176 160.45738828 -26.31054688 159.07421875 C-26.94927734 158.40132812 -27.58800781 157.7284375 -28.24609375 157.03515625 C-28.81948486 156.43670898 -29.39287598 155.83826172 -29.98364258 155.22167969 C-31.51289556 153.38207462 -32.49820152 151.60098089 -33.4765625 149.42578125 C-34.1365625 149.42578125 -34.7965625 149.42578125 -35.4765625 149.42578125 C-36.93725586 147.95922852 -36.93725586 147.95922852 -38.62890625 145.9296875 C-42.90471577 140.90121153 -47.41911609 136.12715147 -51.95898438 131.33789062 C-53.20657003 130.01578389 -54.44845474 128.68827016 -55.68408203 127.35498047 C-56.87735838 126.07068877 -58.08681627 124.80124115 -59.31201172 123.54736328 C-63.44905301 119.13332528 -63.44905301 119.13332528 -63.57421875 115.9140625 C-62.16684984 112.7236924 -60.6153383 109.65373158 -58.9140625 106.61328125 C-58.17651051 105.26534712 -57.44089034 103.91635447 -56.70703125 102.56640625 C-56.33239746 101.87740234 -55.95776367 101.18839844 -55.57177734 100.47851562 C-53.88134146 97.31017302 -52.30681459 94.08757164 -50.7265625 90.86328125 C-46.98090024 83.262961 -42.91548262 75.8500121 -38.83349609 68.42626953 C-35.48816794 62.32621475 -32.30037952 56.18479104 -29.23046875 49.94140625 C-26.74436987 44.95813455 -24.13976918 40.03987892 -21.53442383 35.11816406 C-19.09234794 30.50253451 -16.67053719 25.87745861 -14.2734375 21.23828125 C-13.73549561 20.19921631 -13.19755371 19.16015137 -12.64331055 18.08959961 C-11.59242708 16.05804083 -10.54430707 14.02504962 -9.49926758 11.99047852 C-9.01868896 11.06291748 -8.53811035 10.13535645 -8.04296875 9.1796875 C-7.61959229 8.35799072 -7.19621582 7.53629395 -6.76000977 6.68969727 C-3.2879907 0.56528547 -3.2879907 0.56528547 0 0 Z " fill="#7ED957" transform="translate(196.4765625,253.57421875)"/>
<path d="M0 0 C10.41864952 -0.21214445 20.57486054 0.02906278 30.93017578 1.21606445 C39.44975388 2.14560746 47.97380971 2.41838756 56.53710938 2.65795898 C61.36832882 2.79914498 66.15490726 2.96912529 70.9609375 3.49609375 C77.12675268 4.17185914 83.30329799 4.31389215 89.5 4.5 C91.82301337 4.56976792 94.14593593 4.64263519 96.46875 4.71875 C97.99145508 4.76418945 97.99145508 4.76418945 99.54492188 4.81054688 C102.3052953 4.96190709 105.01561474 5.19602182 107.76269531 5.48632812 C112.94771818 6.02385936 118.12073128 6.29230374 123.328125 6.5 C124.27959412 6.54060547 125.23106323 6.58121094 126.21136475 6.62304688 C129.22413681 6.75139436 132.23704389 6.87605387 135.25 7 C159.97686895 8.02445031 159.97686895 8.02445031 172 9 C164.82973247 23.72013747 156.96622621 38.04054159 149.03125 52.359375 C148.08293184 54.0726945 147.13500669 55.7862316 146.1875 57.5 C145.73044678 58.32661133 145.27339355 59.15322266 144.80249023 60.00488281 C141.57306493 65.8778512 138.56175766 71.82651296 135.609375 77.84375 C133.49761528 81.98525934 131.12608084 85.94768109 128.75 89.94140625 C126.22961776 94.34644931 124.01582662 98.88830163 121.77734375 103.44140625 C118.98444544 109.03334111 115.99740361 114.51538914 113 120 C108.15862679 116.01911408 103.78585996 111.81367675 99.5625 107.1875 C98.33244887 105.85508309 97.10196318 104.52306726 95.87109375 103.19140625 C95.23671387 102.50320801 94.60233398 101.81500977 93.94873047 101.10595703 C90.6964704 97.59129964 87.4102606 94.10878277 84.125 90.625 C82.77340013 89.19013936 81.42183786 87.75524332 80.0703125 86.3203125 C79.39774414 85.60649414 78.72517578 84.89267578 78.03222656 84.15722656 C74.68683132 80.60605977 71.34351106 77.05294068 68 73.5 C66.66667682 72.08332377 65.33334348 70.66665711 64 69.25 C56 60.75 56 60.75 53.99755859 58.62231445 C52.67248527 57.21448478 51.34729118 55.80676877 50.02197266 54.39916992 C46.56123051 50.72324989 43.10299692 47.04501299 39.6484375 43.36328125 C38.93300781 42.60144531 38.21757813 41.83960938 37.48046875 41.0546875 C36.12030878 39.60620546 34.76088149 38.1570349 33.40234375 36.70703125 C30.50216058 33.61993399 27.58340957 30.58220025 24.5390625 27.63671875 C22 25 22 25 22 23 C21.34 23 20.68 23 20 23 C18.51953125 21.49609375 18.51953125 21.49609375 16.8125 19.4375 C14.45634398 16.65606271 12.06396034 14.02723851 9.4375 11.5 C5.84557165 7.98121046 2.90358436 4.09479846 0 0 Z " fill="#7ED958" transform="translate(13,244)"/>
<path d="M0 0 C1.49950195 -0.04350586 1.49950195 -0.04350586 3.02929688 -0.08789062 C11.03098627 -0.15548124 17.89996598 1.18751432 24.33984375 6.171875 C32.30570358 15.98224691 32.85972775 25.0999689 31.9375 37.3125 C31.31266554 42.84657997 30.32774701 48.31933953 29.36083984 53.80175781 C28.62485809 58.16671536 28.0405673 62.5525733 27.4375 66.9375 C26.46004168 73.93337261 25.35253043 80.88646702 24.0625 87.83129883 C23.33074484 91.8421365 22.71531225 95.85140691 22.1875 99.89453125 C22.06181641 100.84585938 21.93613281 101.7971875 21.80664062 102.77734375 C21.56561519 104.63668282 21.3346854 106.49736633 21.11523438 108.359375 C21.00501953 109.20628906 20.89480469 110.05320312 20.78125 110.92578125 C20.69037109 111.67641846 20.59949219 112.42705566 20.50585938 113.20043945 C19.75289495 115.99850443 19.11131354 117.35076583 16.9375 119.3125 C14.16370539 119.68099928 11.79219711 119.80317843 9.0234375 119.73828125 C8.25319244 119.73499313 7.48294739 119.73170502 6.68936157 119.72831726 C5.06365493 119.7179028 3.43798534 119.69796337 1.8125 119.66918945 C-0.68510178 119.62504239 -3.18174357 119.60774555 -5.6796875 119.59570312 C-7.25782647 119.58228225 -8.83595354 119.56736015 -10.4140625 119.55078125 C-11.54057724 119.53970085 -11.54057724 119.53970085 -12.68984985 119.52839661 C-17.94420696 119.43079304 -17.94420696 119.43079304 -19.0625 118.3125 C-19.38122045 111.32189803 -18.49039139 104.86651212 -17.25 98 C-16.87882716 95.8661252 -16.50905636 93.7320061 -16.140625 91.59765625 C-15.95693359 90.53949707 -15.77324219 89.48133789 -15.58398438 88.39111328 C-14.68839794 83.10396679 -13.91683779 77.79961459 -13.14404297 72.4934082 C-12.43299417 67.65543997 -11.64007631 62.84003032 -10.78564453 58.02539062 C-8.51736029 47.67231782 -8.51736029 47.67231782 -9.0625 37.3125 C-11.13375459 34.55565532 -12.30680439 33.45322338 -15.7265625 32.81640625 C-22.66432132 32.95369699 -28.53679471 33.97769692 -35.0625 36.3125 C-35.12945068 37.59241821 -35.12945068 37.59241821 -35.19775391 38.89819336 C-35.71192592 47.37622833 -36.835715 55.54039844 -38.4375 63.875 C-40.02074108 72.39896567 -41.51347916 80.9096233 -42.6875 89.5 C-43.58691192 95.98915066 -44.5015225 102.47247174 -45.5625 108.9375 C-45.66900879 109.64285889 -45.77551758 110.34821777 -45.88525391 111.07495117 C-46.31525044 113.60739783 -46.7420169 115.81061136 -48.13647461 117.99438477 C-51.12296374 120.03825025 -54.23060229 119.72032853 -57.72265625 119.67578125 C-58.84117226 119.67652901 -58.84117226 119.67652901 -59.98228455 119.67729187 C-61.5566576 119.67495361 -63.13103455 119.66523955 -64.70532227 119.64868164 C-67.11964178 119.62505244 -69.5328596 119.62812656 -71.94726562 119.63476562 C-73.4765691 119.62918996 -75.00586792 119.62208078 -76.53515625 119.61328125 C-77.62111839 119.61464836 -77.62111839 119.61464836 -78.72901917 119.61604309 C-83.83145437 119.54354563 -83.83145437 119.54354563 -86.0625 117.3125 C-86.08740234 115.30322266 -86.08740234 115.30322266 -85.7734375 112.8515625 C-85.66354492 111.9534082 -85.55365234 111.05525391 -85.44042969 110.12988281 C-85.31571289 109.20014648 -85.19099609 108.27041016 -85.0625 107.3125 C-84.95583008 106.4472168 -84.84916016 105.58193359 -84.73925781 104.69042969 C-84.40585657 102.02021614 -84.05074228 99.35381247 -83.6875 96.6875 C-83.55666016 95.72457031 -83.42582031 94.76164062 -83.29101562 93.76953125 C-82.3433749 86.95921368 -81.13968011 80.24649888 -79.8125 73.5 C-78.86840742 68.46483959 -78.22683434 63.39074607 -77.5625 58.3125 C-76.57363928 50.76707671 -75.36698238 43.34656607 -73.87890625 35.8828125 C-73.16156989 32.0801298 -72.61875865 28.26289871 -72.08984375 24.4296875 C-71.83448853 22.59603638 -71.83448853 22.59603638 -71.57397461 20.7253418 C-71.23721327 18.27252972 -70.91092486 15.81825329 -70.59594727 13.36254883 C-70.44053467 12.2361499 -70.28512207 11.10975098 -70.125 9.94921875 C-69.99222656 8.93561279 -69.85945312 7.92200684 -69.72265625 6.87768555 C-68.97180608 3.96008838 -68.624059 2.9029823 -66.0625 1.3125 C-62.81616211 0.94018555 -62.81616211 0.94018555 -58.83984375 0.94921875 C-58.1385585 0.94872025 -57.43727325 0.94822174 -56.71473694 0.94770813 C-55.23451906 0.9500458 -53.75429699 0.95975637 -52.27416992 0.97631836 C-50.00468565 0.99995121 -47.73637324 0.99687272 -45.46679688 0.99023438 C-34.34163434 1.03336566 -34.34163434 1.03336566 -32.0625 3.3125 C-31.9375 6.4375 -31.9375 6.4375 -32.0625 9.3125 C-31.134375 8.735 -30.20625 8.1575 -29.25 7.5625 C-19.91730544 2.19954055 -10.60565788 0.09986495 0 0 Z " fill="#17202C" transform="translate(911.0625,320.6875)"/>
<path d="M0 0 C7.3940114 6.34935291 12.56354871 14.00681663 14.0625 23.75 C15.8612858 55.16693068 15.8612858 55.16693068 9.0625 63.75 C6.23408508 64.38923645 6.23408508 64.38923645 2.75512695 64.40942383 C1.45400467 64.42906693 0.15288239 64.44871002 -1.18766785 64.46894836 C-2.60818619 64.46550488 -4.02870332 64.46151974 -5.44921875 64.45703125 C-6.90226821 64.47014513 -8.35529943 64.48544841 -9.80830383 64.50285339 C-13.63064155 64.54275397 -17.45250299 64.55289695 -21.27502441 64.55688477 C-25.1763356 64.5662069 -29.07736583 64.60361447 -32.97851562 64.63867188 C-40.63151268 64.70329888 -48.28422391 64.73649677 -55.9375 64.75 C-55.98777344 66.62558594 -55.98777344 66.62558594 -56.0390625 68.5390625 C-56.06734131 69.59407959 -56.06734131 69.59407959 -56.09619141 70.67041016 C-55.82486481 74.22604087 -54.27734053 76.16386047 -51.9375 78.75 C-46.35611373 81.38277149 -40.66628453 81.00514926 -34.6328125 80.9453125 C-33.01413773 80.94106766 -33.01413773 80.94106766 -31.36276245 80.93673706 C-27.92922701 80.9255766 -24.49595609 80.9004793 -21.0625 80.875 C-18.72917044 80.86496487 -16.39583678 80.85583995 -14.0625 80.84765625 C-8.354077 80.82565079 -2.64580741 80.79221427 3.0625 80.75 C2.80503792 83.58511188 2.53193783 86.41730179 2.25 89.25 C2.17974609 90.04148437 2.10949219 90.83296875 2.03710938 91.6484375 C1.47543975 97.13033303 0.35792745 101.7205864 -1.9375 106.75 C-4.72265625 108.3359375 -4.72265625 108.3359375 -8 109.125 C-9.74796875 109.56392578 -9.74796875 109.56392578 -11.53125 110.01171875 C-12.6553125 110.25535156 -13.779375 110.49898438 -14.9375 110.75 C-16.25234375 111.06904297 -16.25234375 111.06904297 -17.59375 111.39453125 C-35.9154522 115.52881146 -60.4438065 117.35344698 -77.25 108 C-84.58014083 103.22305429 -89.70728063 97.94036666 -92.9375 89.75 C-93.47503906 88.46029297 -93.47503906 88.46029297 -94.0234375 87.14453125 C-95.25944008 82.55441911 -95.27751922 78.23412729 -95.25 73.5 C-95.24653564 72.53143066 -95.24307129 71.56286133 -95.23950195 70.56494141 C-95.10364871 61.40648146 -93.83965158 52.69011243 -91.9375 43.75 C-91.7209375 42.64140625 -91.504375 41.5328125 -91.28125 40.390625 C-88.01164368 25.36600547 -79.52129284 11.7207991 -66.9375 2.75 C-47.60933503 -8.7431167 -19.53865321 -14.02034721 0 0 Z M-40.9375 30.75 C-40.9375 31.41 -40.9375 32.07 -40.9375 32.75 C-41.5975 32.75 -42.2575 32.75 -42.9375 32.75 C-42.9375 33.41 -42.9375 34.07 -42.9375 34.75 C-38.9775 35.08 -35.0175 35.41 -30.9375 35.75 C-30.6075 34.1 -30.2775 32.45 -29.9375 30.75 C-34.26178521 28.36418747 -36.61321479 28.36418747 -40.9375 30.75 Z " fill="#17202C" transform="translate(653.9375,328.25)"/>
<path d="M0 0 C9.40073863 5.56983957 14.94065697 12.44471663 18.80859375 22.6640625 C21.73368729 35.06743584 21.85859011 53.4429514 16.66288757 65.27262878 C14.80859375 67.6640625 14.80859375 67.6640625 11.94221497 68.26533508 C10.19348335 68.2486805 10.19348335 68.2486805 8.40942383 68.23168945 C7.76525009 68.23241959 7.12107635 68.23314972 6.4573822 68.23390198 C4.33010356 68.23042091 2.20502048 68.19154333 0.078125 68.15234375 C-1.39731144 68.14301727 -2.87276337 68.13590037 -4.34822083 68.13090515 C-8.23008031 68.11182174 -12.11100309 68.06271121 -15.99249268 68.00738525 C-19.95385058 67.95622063 -23.91535998 67.93339718 -27.87695312 67.90820312 C-35.64886437 67.85459219 -43.42000402 67.7692652 -51.19140625 67.6640625 C-51.06811201 69.09318056 -50.93460619 70.52141974 -50.796875 71.94921875 C-50.72364014 72.74465088 -50.65040527 73.54008301 -50.57495117 74.35961914 C-49.98278171 77.91753609 -48.5847821 80.01194331 -46.19140625 82.6640625 C-40.6066807 85.29368192 -34.9220747 84.91923045 -28.88671875 84.859375 C-27.26804398 84.85513016 -27.26804398 84.85513016 -25.6166687 84.85079956 C-22.18313326 84.8396391 -18.74986234 84.8145418 -15.31640625 84.7890625 C-12.98307669 84.77902737 -10.64974303 84.76990245 -8.31640625 84.76171875 C-2.60798325 84.73971329 3.10028634 84.70627677 8.80859375 84.6640625 C8.49107979 87.21096187 8.17333852 89.75783254 7.85546875 92.3046875 C7.7663623 93.01963379 7.67725586 93.73458008 7.58544922 94.47119141 C7.40949267 95.88045804 7.23269311 97.28961971 7.05500793 98.69866943 C6.83703965 100.43717879 6.62589278 102.17654042 6.41577148 103.91601562 C6.0073219 106.77265003 5.58293709 108.37278448 3.80859375 110.6640625 C-0.706222 112.83499108 -5.28573323 113.76108071 -10.19140625 114.6640625 C-11.08988281 114.87417969 -11.98835937 115.08429688 -12.9140625 115.30078125 C-30.9419082 119.43399466 -54.96133476 121.13451218 -71.50390625 111.9140625 C-80.90137475 105.78986954 -86.16323289 98.8206964 -88.78344727 87.88354492 C-89.4932743 84.02176301 -89.52980046 80.20643195 -89.50390625 76.2890625 C-89.50044189 75.42345703 -89.49697754 74.55785156 -89.4934082 73.66601562 C-89.34737017 64.80368571 -87.99190856 56.32207359 -86.19140625 47.6640625 C-85.98644531 46.57609375 -85.78148437 45.488125 -85.5703125 44.3671875 C-81.99316882 27.57016499 -72.28038837 13.55245669 -57.94921875 4.12890625 C-52.6121119 1.29404072 -46.94049255 -0.52673219 -41.19140625 -2.3359375 C-29.47824897 -6.24032326 -11.25507243 -5.03035697 0 0 Z M-35.19140625 34.6640625 C-35.19140625 35.3240625 -35.19140625 35.9840625 -35.19140625 36.6640625 C-35.85140625 36.6640625 -36.51140625 36.6640625 -37.19140625 36.6640625 C-37.19140625 37.3240625 -37.19140625 37.9840625 -37.19140625 38.6640625 C-32.42833188 39.61667737 -28.02475345 39.74739607 -23.19140625 39.6640625 C-23.85140625 37.6840625 -24.51140625 35.7040625 -25.19140625 33.6640625 C-29.26915816 32.7373007 -31.61321662 32.32447697 -35.19140625 34.6640625 Z " fill="#17202C" transform="translate(536.19140625,324.3359375)"/>
<path d="M0 0 C1.06202637 0.00161133 2.12405273 0.00322266 3.21826172 0.00488281 C13.59426838 0.16678471 23.00007842 1.72506273 31.3125 8.375 C32.55 9.179375 32.55 9.179375 33.8125 10 C41.16472962 16.98461814 44.86896277 26.54282075 45.515625 36.50390625 C45.62292715 44.36378887 45.01953711 51.90786588 43.9375 59.6875 C43.81149414 60.61312744 43.68548828 61.53875488 43.55566406 62.49243164 C43.36182129 63.7897522 43.36182129 63.7897522 43.1640625 65.11328125 C43.04885254 65.88712158 42.93364258 66.66096191 42.81494141 67.45825195 C42.3125 69.375 42.3125 69.375 40.3125 71.375 C37.56637573 71.61550903 37.56637573 71.61550903 34.02685547 71.60205078 C33.38282776 71.60234283 32.73880005 71.60263489 32.07525635 71.60293579 C29.94326373 71.60154074 27.81161918 71.58597174 25.6796875 71.5703125 C24.20281159 71.56658298 22.72593322 71.56373572 21.24905396 71.56173706 C17.35932602 71.55409574 13.46974712 71.53444308 9.58007812 71.5123291 C5.61199968 71.49188135 1.64389718 71.48273764 -2.32421875 71.47265625 C-10.11204716 71.45119756 -17.89975271 71.41705572 -25.6875 71.375 C-25.58161406 73.14402864 -25.46012979 74.91212847 -25.33203125 76.6796875 C-25.26604736 77.66437012 -25.20006348 78.64905273 -25.13208008 79.66357422 C-24.8550634 82.64628187 -24.8550634 82.64628187 -22.375 85.5 C-18.48416694 88.21453469 -15.41264911 88.50058028 -10.73535156 88.48852539 C-9.75463684 88.48844986 -8.77392212 88.48837433 -7.76348877 88.48829651 C-6.71231873 88.48313522 -5.66114868 88.47797394 -4.578125 88.47265625 C-3.49617859 88.4712413 -2.41423218 88.46982635 -1.29949951 88.46836853 C2.1545285 88.46277318 5.60849159 88.4502215 9.0625 88.4375 C11.40494698 88.4324844 13.74739498 88.4279216 16.08984375 88.42382812 C21.8307513 88.41280528 27.57162101 88.39607174 33.3125 88.375 C33.16533601 90.59001637 33.01496988 92.80482013 32.86328125 95.01953125 C32.7382019 96.86961792 32.7382019 96.86961792 32.6105957 98.75708008 C31.58689755 111.18147232 31.58689755 111.18147232 28.52734375 114.046875 C12.35820038 123.74265762 -16.92722009 124.26771054 -35 120.2578125 C-43.84043163 117.3538335 -52.58616946 113.47924142 -57.6875 105.375 C-58.07164063 104.7975 -58.45578125 104.22 -58.8515625 103.625 C-68.30308048 88.39377679 -64.68641625 65.49791028 -60.88671875 48.89453125 C-57.86401214 36.96461877 -52.20695507 25.36775813 -43.6875 16.375 C-43.0275 16.375 -42.3675 16.375 -41.6875 16.375 C-41.6875 15.715 -41.6875 15.055 -41.6875 14.375 C-29.90152058 4.02315525 -15.34069824 -0.02409408 0 0 Z M-10.6875 38.375 C-11.0175 39.695 -11.3475 41.015 -11.6875 42.375 C-4.7575 42.87 -4.7575 42.87 2.3125 43.375 C1.6525 41.395 0.9925 39.415 0.3125 37.375 C-4.00683651 36.37050314 -6.79970387 36.04232232 -10.6875 38.375 Z " fill="#17202C" transform="translate(1096.6875,320.625)"/>
<path d="M0 0 C7.46545526 7.29184002 10.60378952 13.47196623 10.8671875 24.078125 C10.79382093 30.25925875 9.90571769 36.30257947 9.00488281 42.40966797 C8.65207352 44.83006687 8.31712868 47.2525461 7.984375 49.67578125 C6.75512837 58.56178288 5.42476798 67.41148022 3.80712891 76.23535156 C2.62884658 82.72591591 1.67315232 89.24542149 0.76953125 95.77954102 C0.08667745 100.54739306 -0.7352456 105.08280999 -2.3203125 109.640625 C-5.27841726 111.11967738 -8.275028 110.76253403 -11.515625 110.73828125 C-12.22306854 110.7368663 -12.93051208 110.73545135 -13.65939331 110.73399353 C-15.92140919 110.728391 -18.18332648 110.71583818 -20.4453125 110.703125 C-21.97786315 110.69811032 -23.51041536 110.69354736 -25.04296875 110.68945312 C-28.80212138 110.67842077 -32.56120022 110.66115452 -36.3203125 110.640625 C-36.9803125 108.330625 -37.6403125 106.020625 -38.3203125 103.640625 C-39.05894531 104.03894531 -39.79757812 104.43726563 -40.55859375 104.84765625 C-53.17258845 111.43514268 -65.39792419 115.09318178 -79.6328125 111.578125 C-86.43740524 109.21034801 -91.43628079 104.83427552 -94.7578125 98.453125 C-99.40061986 88.23062091 -98.09870443 75.23779043 -94.3203125 64.90625 C-89.42950772 54.28805542 -82.07119501 48.90479715 -71.3203125 44.640625 C-58.25628026 40.01957104 -43.95799675 41.35287901 -30.3203125 41.640625 C-30.23954287 39.18163845 -30.17994107 36.72528758 -30.1328125 34.265625 C-30.10767578 33.56695312 -30.08253906 32.86828125 -30.05664062 32.1484375 C-29.99052689 29.87314823 -29.99052689 29.87314823 -30.3203125 26.640625 C-33.50094463 24.52020358 -34.23520241 24.39589702 -37.86767578 24.42944336 C-38.78517609 24.43282211 -39.70267639 24.43620087 -40.64797974 24.43968201 C-42.12933914 24.45987144 -42.12933914 24.45987144 -43.640625 24.48046875 C-44.65502655 24.48567032 -45.6694281 24.49087189 -46.71456909 24.49623108 C-49.9582949 24.51406541 -53.2017069 24.54525224 -56.4453125 24.578125 C-59.69602839 24.60568969 -62.94670127 24.63039009 -66.19747925 24.64930725 C-68.22187283 24.6616203 -70.2462419 24.67927724 -72.27053833 24.70262146 C-73.63733231 24.71241783 -73.63733231 24.71241783 -75.03173828 24.72241211 C-75.83765411 24.73066513 -76.64356995 24.73891815 -77.47390747 24.74742126 C-79.3203125 24.640625 -79.3203125 24.640625 -80.3203125 23.640625 C-80.26692397 17.63441545 -79.06634774 11.59925187 -78.0078125 5.703125 C-77.67330078 3.80240234 -77.67330078 3.80240234 -77.33203125 1.86328125 C-76.21983491 -1.67942909 -75.55117057 -2.65518613 -72.3203125 -4.359375 C-69.28764516 -5.20454459 -66.41227374 -5.82794416 -63.3203125 -6.359375 C-62.3509375 -6.54628906 -61.3815625 -6.73320312 -60.3828125 -6.92578125 C-41.87962289 -9.98823046 -15.34115599 -13.0366905 0 0 Z M-51.3203125 71.640625 C-51.48712359 74.72410326 -51.48712359 74.72410326 -51.3203125 77.640625 C-48.63586394 78.67310521 -47.07918104 78.60204397 -44.1953125 78.140625 C-40.93910626 76.84706101 -40.93910626 76.84706101 -39.9453125 73.015625 C-39.6359375 71.345 -39.6359375 71.345 -39.3203125 69.640625 C-40.94495092 69.58667022 -42.57009791 69.54785305 -44.1953125 69.515625 C-45.10023438 69.49242187 -46.00515625 69.46921875 -46.9375 69.4453125 C-49.50838244 69.39737664 -49.50838244 69.39737664 -51.3203125 71.640625 Z " fill="#17202C" transform="translate(815.3203125,329.359375)"/>
<path d="M0 0 C0.42739836 5.62944701 -0.29841859 10.85752026 -1.375 16.375 C-1.56449219 17.44041016 -1.56449219 17.44041016 -1.7578125 18.52734375 C-2.7485546 23.7485546 -2.7485546 23.7485546 -5 26 C-8.20777494 26.32372041 -11.37036374 26.46410502 -14.58984375 26.56640625 C-18.74779648 26.62217952 -18.74779648 26.62217952 -22 29 C-22.67940467 31.42715206 -22.67940467 31.42715206 -23.125 34.125 C-23.29257812 35.03507812 -23.46015625 35.94515625 -23.6328125 36.8828125 C-23.81457031 37.93082031 -23.81457031 37.93082031 -24 39 C-22.86820312 38.97679687 -21.73640625 38.95359375 -20.5703125 38.9296875 C-19.08854825 38.91093099 -17.60677688 38.89273066 -16.125 38.875 C-15.37863281 38.85824219 -14.63226563 38.84148437 -13.86328125 38.82421875 C-11.90805539 38.8066041 -9.95257979 38.89679811 -8 39 C-6 41 -6 41 -5.91796875 43.58203125 C-6.57873686 51.50167219 -7.50828152 59.41754569 -10 67 C-13.30994713 68.65497356 -16.99123 68.10084335 -20.625 68.0625 C-21.42679687 68.05798828 -22.22859375 68.05347656 -23.0546875 68.04882812 C-25.03649006 68.03703168 -27.01825433 68.01909605 -29 68 C-29.12060791 68.9744104 -29.12060791 68.9744104 -29.24365234 69.96850586 C-29.61633534 72.95874196 -29.99562599 75.94810572 -30.375 78.9375 C-30.50132812 79.95908203 -30.62765625 80.98066406 -30.7578125 82.03320312 C-31.43837214 87.35858233 -32.29271619 92.53936388 -33.52246094 97.76342773 C-34.42470229 101.98910926 -34.89855199 106.27818521 -35.4375 110.5625 C-36.47945213 118.53988336 -37.75141441 126.41095194 -39.31640625 134.30078125 C-40.21809004 139.18017869 -40.81889419 144.08207248 -41.375 149.01171875 C-42.09257554 152.44262679 -42.74665822 154.29683381 -45 157 C-47.84085926 157.46857513 -50.07966177 157.60945813 -52.9140625 157.5234375 C-54.06943008 157.5163829 -54.06943008 157.5163829 -55.24813843 157.50918579 C-57.70800143 157.487832 -60.16571231 157.43119857 -62.625 157.375 C-64.28904229 157.3584955 -65.95310746 157.34414675 -67.6171875 157.33203125 C-79.80445977 157.19554023 -79.80445977 157.19554023 -81 156 C-81.72589267 149.06214123 -80.66260307 142.46759954 -79.27832031 135.68164062 C-78.09491829 129.79469382 -77.26832591 123.89164396 -76.5 117.9375 C-75.69508616 111.75546769 -74.80361005 105.65959282 -73.5 99.5625 C-72.16722761 93.2804218 -71.29538911 86.99639276 -70.5 80.625 C-69.4895687 72.54154959 -68.2988125 64.54025544 -66.81640625 56.53125 C-66.16965298 53.01778491 -65.58985389 49.49667286 -65.02734375 45.96875 C-64.85710693 44.90970459 -64.68687012 43.85065918 -64.51147461 42.75952148 C-64.18030904 40.68953907 -63.85398268 38.61877424 -63.53344727 36.54711914 C-61.51954383 24.06801711 -58.43377384 11.68494103 -48 3.5 C-36.57729461 -4.10782874 -11.94540545 -7.96360363 0 0 Z " fill="#18212C" transform="translate(384,283)"/>
<path d="M0 0 C1.12728516 -0.01023193 2.25457031 -0.02046387 3.41601562 -0.03100586 C11.74204602 0.05537127 20.92477602 0.64988801 28.5 4.4375 C28.75460915 10.57358046 27.79528626 16.23672061 26.625 22.25 C26.45097656 23.20326172 26.27695313 24.15652344 26.09765625 25.13867188 C25.92363281 26.04810547 25.74960938 26.95753906 25.5703125 27.89453125 C25.41320801 28.71928955 25.25610352 29.54404785 25.09423828 30.39379883 C24.5 32.4375 24.5 32.4375 22.5 34.4375 C19.41479492 34.60107422 19.41479492 34.60107422 15.48046875 34.4921875 C14.05144217 34.46688401 12.62240517 34.4421629 11.19335938 34.41796875 C8.94164597 34.36842664 6.6904736 34.31258847 4.43920898 34.24560547 C2.2654285 34.18495071 0.09232899 34.14957349 -2.08203125 34.1171875 C-3.38374268 34.08351074 -4.6854541 34.04983398 -6.02661133 34.01513672 C-10.11436785 34.51220699 -11.63857637 35.53490943 -14.5 38.4375 C-18.53769417 43.9728256 -19.63471608 50.6360007 -20.75 57.25 C-20.92273438 58.17103516 -21.09546875 59.09207031 -21.2734375 60.04101562 C-22.85717291 69.02180096 -23.59262775 77.73948444 -20.5 86.4375 C-16.76689567 87.62567968 -13.22508355 87.55112739 -9.328125 87.53515625 C-8.6457074 87.5337413 -7.96328979 87.53232635 -7.26019287 87.53086853 C-5.09008316 87.52529084 -2.9200783 87.51274254 -0.75 87.5 C0.72525892 87.49498211 2.20051947 87.49041971 3.67578125 87.48632812 C7.28388798 87.47532875 10.89193375 87.45807953 14.5 87.4375 C14.63208964 94.4228407 14.5736029 101.12954579 13.25 108 C13.08564453 109.02577148 13.08564453 109.02577148 12.91796875 110.07226562 C12.38518334 112.93528617 11.82671671 115.04967667 9.93359375 117.296875 C6.32918139 118.9862625 2.73385307 119.5532748 -1.1875 120.125 C-2.02531006 120.25092529 -2.86312012 120.37685059 -3.72631836 120.5065918 C-19.11275137 122.645487 -34.95805632 123.06337673 -48.5 114.4375 C-58.70356282 106.26294393 -61.41878151 96.16846644 -62.82421875 83.51953125 C-63.43524568 67.90673965 -60.29604359 49.93784933 -54.5 35.4375 C-54.10425781 34.44234375 -53.70851563 33.4471875 -53.30078125 32.421875 C-46.9365981 18.1981992 -35.48340991 7.702596 -21 2 C-14.080596 0.07055081 -7.15216403 0.05012744 0 0 Z " fill="#18202C" transform="translate(1008.5,320.5625)"/>
<path d="M0 0 C1.45240047 -0.01271863 2.90522209 0.00264412 4.35717773 0.04077148 C5.50898781 0.04426857 5.50898781 0.04426857 6.68406677 0.0478363 C8.3056043 0.05757214 9.92710786 0.07935608 11.54833984 0.11230469 C14.03525903 0.16175562 16.52020176 0.17378634 19.00756836 0.17944336 C20.58245928 0.19352786 22.15733296 0.20973173 23.73217773 0.22827148 C24.47802628 0.23363419 25.22387482 0.23899689 25.99232483 0.24452209 C31.24497584 0.36606959 31.24497584 0.36606959 33.47827148 2.59936523 C33.35324586 5.05946723 33.11193537 7.35615975 32.74780273 9.78295898 C32.59937675 10.85688148 32.59937675 10.85688148 32.44795227 11.95249939 C32.13737395 14.17016057 31.81012462 16.38479659 31.47827148 18.59936523 C31.29312988 19.85765137 31.10798828 21.1159375 30.91723633 22.41235352 C30.3509379 26.16514462 29.76198187 29.91371462 29.16577148 33.66186523 C28.94685732 35.04986019 28.72811141 36.43788168 28.50952148 37.82592773 C26.81976836 48.53444489 25.09042192 59.2365939 23.35620117 69.93798828 C21.84484528 79.27871167 20.37145334 88.62485023 18.91577148 97.97436523 C12.89888547 136.57932074 12.89888547 136.57932074 10.85327148 148.03686523 C10.52456055 149.89118164 10.52456055 149.89118164 10.18920898 151.78295898 C9.47827148 154.59936523 9.47827148 154.59936523 7.47827148 156.59936523 C4.84886953 156.79901896 2.32706985 156.87920633 -0.30297852 156.86499023 C-1.07226685 156.86690369 -1.84155518 156.86881714 -2.63415527 156.87078857 C-4.26155931 156.87215032 -5.88897422 156.86845462 -7.51635742 156.86010742 C-10.01188482 156.84940744 -12.50669234 156.86000275 -15.00219727 156.87280273 C-16.58162594 156.87148114 -18.16105417 156.86891874 -19.74047852 156.86499023 C-20.48946411 156.8690387 -21.23844971 156.87308716 -22.01013184 156.8772583 C-27.29180608 156.82928767 -27.29180608 156.82928767 -29.52172852 154.59936523 C-29.4682774 152.09345119 -29.27471098 149.76483655 -28.95922852 147.28686523 C-28.86552979 146.50053711 -28.77183105 145.71420898 -28.67529297 144.90405273 C-27.5953319 136.36158501 -26.06166147 127.89513585 -24.55517578 119.41967773 C-22.57431802 108.18543596 -20.90088763 96.9179895 -19.30957031 85.62280273 C-18.24405271 78.12370687 -17.01030154 70.68651543 -15.5763855 63.24882507 C-14.51887669 57.71861557 -13.71777375 52.18461376 -13.02172852 46.59936523 C-12.00209896 38.76795901 -10.74162641 31.04378571 -9.20532227 23.29858398 C-8.30363847 18.41918654 -7.70283432 13.51729276 -7.14672852 8.58764648 C-6.09991489 3.58256882 -5.35165203 0.91080109 0 0 Z " fill="#17202C" transform="translate(696.521728515625,283.400634765625)"/>
<path d="M0 0 C0.23762291 6.66928313 -0.65210042 12.82684978 -1.875 19.375 C-2.04902344 20.37144531 -2.22304688 21.36789062 -2.40234375 22.39453125 C-2.57636719 23.34457031 -2.75039063 24.29460937 -2.9296875 25.2734375 C-3.08679199 26.13372559 -3.24389648 26.99401367 -3.40576172 27.88037109 C-4 30 -4 30 -6 32 C-7.8125 32.27124023 -7.8125 32.27124023 -10 32.30859375 C-10.80566406 32.33373047 -11.61132812 32.35886719 -12.44140625 32.38476562 C-14.11582138 32.41927647 -15.79030483 32.45065087 -17.46484375 32.47851562 C-22.00180657 32.62544728 -25.97227535 33.16189495 -30.31640625 34.52758789 C-31.64007202 34.93926964 -31.64007202 34.93926964 -32.99047852 35.35926819 C-33.65362061 35.57070969 -34.3167627 35.78215118 -35 36 C-35.06927704 36.56058105 -35.13855408 37.12116211 -35.20993042 37.69873047 C-37.18152026 53.52416873 -39.56026424 69.2608923 -42.125 85 C-42.66600037 88.33979493 -43.20601899 91.67974683 -43.74557495 95.01977539 C-44.07730355 97.07121587 -44.41002365 99.12249636 -44.743927 101.17358398 C-44.96953812 102.56299194 -44.96953812 102.56299194 -45.19970703 103.98046875 C-45.41388275 105.27863525 -45.41388275 105.27863525 -45.63238525 106.60302734 C-45.95864216 108.73033287 -46.19601302 110.84873356 -46.42138672 112.98828125 C-47 116 -47 116 -48.08374023 117.91699219 C-51.13082565 119.63910595 -54.25660497 119.38633255 -57.66015625 119.328125 C-58.77867226 119.32531525 -58.77867226 119.32531525 -59.91978455 119.32244873 C-61.49417602 119.31573258 -63.06855093 119.30182661 -64.64282227 119.28125 C-67.05696053 119.25007154 -69.4704459 119.24027618 -71.88476562 119.234375 C-73.41407049 119.22520568 -74.94336869 119.21483013 -76.47265625 119.203125 C-77.19663101 119.19887512 -77.92060577 119.19462524 -78.66651917 119.19024658 C-83.76555328 119.11722336 -83.76555328 119.11722336 -86 118 C-86.21003641 111.30677337 -85.40096368 105.01058069 -84.35546875 98.40625 C-84.18501541 97.30132202 -84.01456207 96.19639404 -83.83894348 95.0579834 C-83.47774321 92.72441234 -83.11364558 90.39128812 -82.74682617 88.05859375 C-82.19379464 84.54004833 -81.64980704 81.02020056 -81.10742188 77.5 C-79.43568126 66.71531939 -77.68476295 55.96255526 -75.61450195 45.24707031 C-74.78960348 40.88825042 -74.12362228 36.51634023 -73.5 32.125 C-73.25078131 30.44129042 -73.00076191 28.75769919 -72.75 27.07421875 C-72.37112218 24.51827348 -71.99452371 21.96210096 -71.625 19.40478516 C-71.26190846 16.91373137 -70.88270756 14.4256054 -70.5 11.9375 C-70.39365234 11.18162598 -70.28730469 10.42575195 -70.17773438 9.64697266 C-69.38229475 4.59872208 -69.38229475 4.59872208 -67.91455078 2.30004883 C-64.97174862 0.30178034 -61.95488478 0.61162675 -58.5234375 0.671875 C-57.79758453 0.67374817 -57.07173157 0.67562134 -56.32388306 0.67755127 C-54.79237258 0.6842658 -53.26087908 0.69816857 -51.72949219 0.71875 C-49.37679233 0.74997621 -47.02476177 0.75972804 -44.671875 0.765625 C-43.18488761 0.7747922 -41.69790706 0.78516707 -40.2109375 0.796875 C-39.50367523 0.80112488 -38.79641296 0.80537476 -38.06771851 0.80975342 C-33.11717756 0.88282244 -33.11717756 0.88282244 -32 2 C-31.63239269 4.32817964 -31.29758419 6.6618385 -31 9 C-30.5153125 8.60167969 -30.030625 8.20335937 -29.53125 7.79296875 C-19.87362872 0.15973347 -12.00579376 -0.42207869 0 0 Z " fill="#18212D" transform="translate(455,321)"/>
<path d="M0 0 C0.35401379 5.78222519 -0.50434532 10.87288768 -1.72192383 16.52587891 C-2.93119207 22.29767223 -3.74270143 28.09089407 -4.5 33.9375 C-5.33280779 40.33594108 -6.25320522 46.66862026 -7.5 53 C-8.92024952 60.22699887 -9.91426368 67.47600745 -10.87280273 74.77709961 C-11.73462901 81.26193367 -12.75386938 87.69702921 -13.9453125 94.12915039 C-14.947644 99.55163191 -15.70988326 104.98758099 -16.375 110.4609375 C-17.11109839 113.45133721 -17.48266575 114.24697997 -20 116 C-22.7171533 116.27377804 -25.20000396 116.37298668 -27.9140625 116.328125 C-28.68430756 116.32625183 -29.45455261 116.32437866 -30.24813843 116.32244873 C-31.87380308 116.31573256 -33.4994517 116.30182656 -35.125 116.28125 C-37.62254733 116.25003066 -40.11946419 116.24027281 -42.6171875 116.234375 C-44.19532025 116.22520761 -45.77344655 116.21483267 -47.3515625 116.203125 C-48.10257233 116.19887512 -48.85358215 116.19462524 -49.62734985 116.19024658 C-54.88282809 116.11717191 -54.88282809 116.11717191 -56 115 C-56.57276134 106.98134129 -54.93209929 99.38352089 -53.46630859 91.54589844 C-52.61415552 86.89341037 -51.83920847 82.22807853 -51.0625 77.5625 C-50.89613037 76.56702148 -50.72976074 75.57154297 -50.55834961 74.54589844 C-49.05420887 65.4736682 -47.66025487 56.3851823 -46.30688477 47.28930664 C-46.15018311 46.24895264 -45.99348145 45.20859863 -45.83203125 44.13671875 C-45.69514893 43.21592529 -45.5582666 42.29513184 -45.41723633 41.34643555 C-44.56643666 36.56174533 -43.13921686 35.0675294 -39.375 32.125 C-34.72017233 28.40956834 -30.17606573 24.60205506 -25.6875 20.6875 C-24.41541156 19.58067517 -23.14327574 18.4739048 -21.87109375 17.3671875 C-21.2354248 16.81385742 -20.59975586 16.26052734 -19.94482422 15.69042969 C-16.72120489 12.88847887 -13.48792955 10.09789349 -10.25 7.3125 C-9.66565186 6.8074292 -9.08130371 6.3023584 -8.47924805 5.78198242 C-1.75001949 0 -1.75001949 0 0 0 Z " fill="#18212D" transform="translate(1197,324)"/>
<path d="M0 0 C0.70382813 0.70511719 1.40765625 1.41023438 2.1328125 2.13671875 C4.03751542 4.04209187 5.94953503 5.93969647 7.8671875 7.83203125 C12.88208107 12.79410172 17.78327446 17.76481757 22.359375 23.140625 C24.16147789 25.18300828 26.05938947 27.08901711 28 29 C31.8809749 32.8285293 35.46383026 36.85386159 39 41 C39.58394531 41.67933594 40.16789062 42.35867188 40.76953125 43.05859375 C42.18255952 44.703266 43.59170922 46.35126933 45 48 C43.41636918 51.83605489 40.97385878 54.28445649 38.0625 57.203125 C37.58176025 57.6857782 37.10102051 58.1684314 36.60571289 58.66571045 C35.59278907 59.67999064 34.57735362 60.69176804 33.55957031 61.70117188 C31.99826835 63.25171972 30.44797503 64.81270503 28.8984375 66.375 C27.91209939 67.36001734 26.9251415 68.34441453 25.9375 69.328125 C25.03902344 70.2243457 24.14054687 71.12056641 23.21484375 72.04394531 C21 74 21 74 19 74 C19 74.66 19 75.32 19 76 C18.34 76 17.68 76 17 76 C17 76.66 17 77.32 17 78 C15.53399658 79.44352722 15.53399658 79.44352722 13.50488281 81.12182617 C9.07787158 84.88852939 4.99606223 88.90905965 0.921875 93.05078125 C-0.58320264 94.56848899 -2.08841484 96.0860633 -3.59375 97.60351562 C-5.93486414 99.96955098 -8.27432978 102.3371744 -10.61132812 104.70727539 C-12.88756168 107.01364673 -15.169923 109.31381116 -17.453125 111.61328125 C-18.50007538 112.68042107 -18.50007538 112.68042107 -19.56817627 113.76911926 C-20.22275818 114.42707993 -20.87734009 115.08504059 -21.55175781 115.76293945 C-22.12275208 116.34139114 -22.69374634 116.91984283 -23.28204346 117.51582336 C-25.08506578 119.07349001 -26.83194919 120.03085822 -29 121 C-28.40378108 114.60707465 -27.33731295 108.5557467 -25.8125 102.32421875 C-25.59418518 101.4135968 -25.37587036 100.50297485 -25.15093994 99.5647583 C-24.43948224 96.60430967 -23.71995427 93.64589275 -23 90.6875 C-22.50066455 88.61864625 -22.00164462 86.54971631 -21.50292969 84.48071289 C-18.12484131 70.49700298 -14.67074945 56.53252835 -11.15234375 42.58349609 C-9.37175351 35.51995858 -7.61527114 28.45219949 -5.921875 21.3671875 C-5.75737854 20.67969925 -5.59288208 19.992211 -5.42340088 19.28388977 C-4.64951944 16.04524395 -3.88073238 12.80554657 -3.11816406 9.56420898 C-2.85229492 8.44602783 -2.58642578 7.32784668 -2.3125 6.17578125 C-2.08175781 5.19520752 -1.85101563 4.21463379 -1.61328125 3.2043457 C-1 1 -1 1 0 0 Z " fill="#7FD959" transform="translate(136,389)"/>
<path d="M0 0 C54.78 0 109.56 0 166 0 C162.68884097 2.20743936 159.53118972 3.11449238 155.74609375 4.13671875 C155.0215097 4.33693634 154.29692566 4.53715393 153.55038452 4.74343872 C151.18082977 5.39670377 148.80922215 6.04215264 146.4375 6.6875 C144.79830398 7.13783845 143.1592259 7.58860637 141.52026367 8.03979492 C130.89624519 10.95923298 120.25778101 13.82478153 109.61279297 16.66674805 C103.24281299 18.37362674 96.91602848 20.18553277 90.60327148 22.09155273 C82.92789926 24.37541695 75.15515178 26.28596552 67.39575195 28.26025391 C58.65304626 30.51014731 50.02037939 33.03122782 41.42138672 35.77880859 C36.59674165 37.30186717 32.0348524 38.46349933 27 39 C26.20442708 37.8984375 25.40885417 36.796875 24.61328125 35.6953125 C24.09282227 34.97480713 23.57236328 34.25430176 23.03613281 33.51196289 C21.87743147 31.90734207 20.71923644 30.30235553 19.56152344 28.69702148 C16.47848057 24.42348435 13.3871566 20.15644936 10.27734375 15.90234375 C9.68590576 15.09071777 9.09446777 14.2790918 8.48510742 13.44287109 C7.34381532 11.87714744 6.19952663 10.31360294 5.05200195 8.75244141 C4.27602661 7.68582275 4.27602661 7.68582275 3.484375 6.59765625 C3.02772461 5.97383057 2.57107422 5.35000488 2.10058594 4.70727539 C1 3 1 3 0 0 Z " fill="#7FD959" transform="translate(252,209)"/>
<path d="M0 0 C0.66 0 1.32 0 2 0 C3.71156044 2.27901327 5.30409771 4.56357003 6.875 6.9375 C7.86091874 8.40045479 8.8479374 9.86266879 9.8359375 11.32421875 C10.6088916 12.47156494 10.6088916 12.47156494 11.39746094 13.64208984 C14.05025041 17.54529531 16.77359314 21.39801617 19.5 25.25 C20.0038623 25.96406006 20.50772461 26.67812012 21.02685547 27.41381836 C22.92600336 30.0998296 24.81781814 32.76686897 26.84375 35.359375 C28 37 28 37 28 39 C21.67260652 38.8798058 15.34531086 38.75548467 9.01806641 38.62768555 C6.87518395 38.58494316 4.73228045 38.5432399 2.58935547 38.50268555 C-11.290724 38.23913973 -25.13933364 37.78687957 -39 37 C-38.05714805 35.88653067 -37.11234915 34.7747098 -36.16674805 33.66357422 C-35.64082565 33.04425018 -35.11490326 32.42492615 -34.57304382 31.78683472 C-32.4650666 29.39236431 -30.18713637 27.25296872 -27.8125 25.125 C-26.55373047 23.98417969 -26.55373047 23.98417969 -25.26953125 22.8203125 C-23 21 -23 21 -20 20 C-20 19.34 -20 18.68 -20 18 C-18.6015625 16.58984375 -18.6015625 16.58984375 -16.625 14.9375 C-13.24748529 12.0666125 -9.91813997 9.1551552 -6.625 6.1875 C-5.37589844 5.06408203 -5.37589844 5.06408203 -4.1015625 3.91796875 C-2.70501453 2.64342404 -1.33693875 1.33693875 0 0 Z " fill="#80D959" transform="translate(239,209)"/>
<path d="M0 0 C19.8 0 39.6 0 60 0 C57.28004726 2.71995274 55.15950491 4.20766275 51.86328125 6.08203125 C50.82252441 6.67757813 49.78176758 7.273125 48.70947266 7.88671875 C47.58847168 8.52222656 46.4674707 9.15773438 45.3125 9.8125 C43.55140262 10.81809904 41.79132074 11.82546059 40.03125 12.83285522 C38.82421113 13.5235356 37.61685069 14.21365428 36.40917969 14.90322876 C30.29216975 18.39733091 24.20645784 21.94442453 18.125 25.5 C17.18309814 26.05018799 16.24119629 26.60037598 15.27075195 27.16723633 C13.45412807 28.22844517 11.63763655 29.28988065 9.82128906 30.3515625 C4.88251631 33.23721443 -0.05882765 36.11845949 -5 39 C-6.05870414 35.71701974 -5.91657112 33.37442008 -5.29296875 30 C-5.11830078 29.02933594 -4.94363281 28.05867188 -4.76367188 27.05859375 C-4.57353516 26.04925781 -4.38339844 25.03992188 -4.1875 24 C-3.82636302 22.0209172 -3.46568709 20.04175021 -3.10546875 18.0625 C-2.94199951 17.18722656 -2.77853027 16.31195313 -2.61010742 15.41015625 C-1.69258208 10.28170726 -0.85649887 5.13899324 0 0 Z " fill="#82DA5C" transform="translate(1208,322)"/>
<path d="M0 0 C5.10993969 0.62472617 9.40350524 2.19751981 14.125 4.125 C20.47326411 6.65677523 26.84691463 9.03554033 33.3125 11.25 C41.77587336 14.15996991 50.14165051 17.30217924 58.5 20.5 C69.93332856 24.87196252 81.41498522 29.04841754 93 33 C93 33.33 93 33.66 93 34 C78.54902802 33.30104126 64.10318947 32.52384265 49.65893555 31.69775391 C47.32144535 31.56459637 44.98387805 31.43278636 42.64624023 31.30224609 C39.21581163 31.11064985 35.78562546 30.91514678 32.35546875 30.71875 C31.31690231 30.661427 30.27833588 30.604104 29.20829773 30.54504395 C26.46996646 30.38579642 23.73524428 30.20520388 21 30 C20.28043625 29.94608597 19.5608725 29.89217194 18.81950378 29.83662415 C16.92919922 29.63989258 16.92919922 29.63989258 14 29 C12.22576429 26.63954933 11.13022714 24.81811882 9.9375 22.1875 C9.60878906 21.5169458 9.28007813 20.8463916 8.94140625 20.15551758 C8.26933822 18.78061096 7.6076857 17.40056427 6.95654297 16.015625 C6.05948158 14.12533944 5.12278719 12.26383095 4.16015625 10.40625 C0 2.34044118 0 2.34044118 0 0 Z " fill="#80D95A" transform="translate(83,210)"/>
<path d="M0 0 C3.12578143 1.6720747 5.39281175 3.7856235 7 7 C7 11.29 7 15.58 7 20 C-2.9 20 -12.8 20 -23 20 C-21.93833011 12.5683108 -20.50909203 7.91879958 -14.875 3.125 C-10.00332535 -0.475803 -5.97921657 -0.84240111 0 0 Z M-11 8 C-11 8.66 -11 9.32 -11 10 C-11.66 10 -12.32 10 -13 10 C-13 10.66 -13 11.32 -13 12 C-9.04 12.33 -5.08 12.66 -1 13 C-0.67 11.35 -0.34 9.7 0 8 C-4.32428521 5.61418747 -6.67571479 5.61418747 -11 8 Z " fill="#F7F7F7" transform="translate(624,351)"/>
<path d="M0 0 C2.5625 2.25 2.5625 2.25 4.5625 6.25 C4.5625 10.21 4.5625 14.17 4.5625 18.25 C-5.3375 18.25 -15.2375 18.25 -25.4375 18.25 C-24.47889692 10.58117534 -23.63176642 5.96432549 -17.8671875 0.859375 C-12.1203934 -2.93618204 -6.06286285 -3.08654836 0 0 Z M-14.4375 6.25 C-14.7675 7.57 -15.0975 8.89 -15.4375 10.25 C-8.5075 10.745 -8.5075 10.745 -1.4375 11.25 C-2.0975 9.27 -2.7575 7.29 -3.4375 5.25 C-7.75683651 4.24550314 -10.54970387 3.91732232 -14.4375 6.25 Z " fill="#F6F6F7" transform="translate(1100.4375,352.75)"/>
<path d="M0 0 C4.30776883 1.79490368 4.84546881 2.69093762 7 7 C7 11.29 7 15.58 7 20 C-2.9 20 -12.8 20 -23 20 C-21.87938623 12.15570363 -20.13109383 7.83982928 -14.3125 2.5625 C-9.63162813 -0.60025126 -5.54896223 -0.4893573 0 0 Z M-11 8 C-11 8.66 -11 9.32 -11 10 C-11.66 10 -12.32 10 -13 10 C-13 10.66 -13 11.32 -13 12 C-8.23692563 12.95261487 -3.8333472 13.08333357 1 13 C0.34 11.02 -0.32 9.04 -1 7 C-5.07775191 6.0732382 -7.42181037 5.66041447 -11 8 Z " fill="#F7F7F7" transform="translate(512,351)"/>
<path d="M0 0 C-0.23761487 2.13853385 -0.47711182 4.27687691 -0.7265625 6.4140625 C-0.90407909 8.09286222 -1.04679677 9.77584112 -1.1484375 11.4609375 C-1.40724941 15.17057489 -1.58245637 17.4035091 -3.75 20.5 C-7.66785661 23.11190441 -11.94533666 23.17294025 -16.5625 23.25 C-17.49191406 23.27578125 -18.42132812 23.3015625 -19.37890625 23.328125 C-22.5289017 22.93378876 -23.84221782 22.32760763 -26 20 C-26.92252297 15.3074816 -26.53574388 10.57374763 -25 6.0625 C-17.872883 -1.2873394 -9.45856051 -0.44337002 0 0 Z M-19 10 C-19.16681109 13.08347826 -19.16681109 13.08347826 -19 16 C-16.31555144 17.03248021 -14.75886854 16.96141897 -11.875 16.5 C-8.61879376 15.20643601 -8.61879376 15.20643601 -7.625 11.375 C-7.315625 9.704375 -7.315625 9.704375 -7 8 C-8.62463842 7.94604522 -10.24978541 7.90722805 -11.875 7.875 C-12.77992188 7.85179687 -13.68484375 7.82859375 -14.6171875 7.8046875 C-17.18806994 7.75675164 -17.18806994 7.75675164 -19 10 Z " fill="#F4F5F5" transform="translate(783,391)"/>
</svg>
